<svg id="svg" version="1.1" width="400" height="250.46153846153845" viewBox="0 0 400 250.46153846153845" xmlns="http://www.w3.org/2000/svg" xmlns:xlink="http://www.w3.org/1999/xlink" ><g id="svgg"><path id="path0" d="M115.930 53.017 C 69.860 71.218,32.060 86.216,31.930 86.347 C 31.572 86.705,31.491 162.779,31.848 163.459 C 32.060 163.864,46.004 169.434,115.974 197.065 L 199.846 230.185 283.564 197.125 C 329.609 178.942,367.444 163.921,367.641 163.744 C 368.199 163.246,368.199 86.802,367.641 86.314 C 367.343 86.053,201.367 20.397,200.103 20.040 C 199.838 19.965,169.977 31.664,115.930 53.017 M283.590 55.692 C 326.349 72.583,362.279 86.772,363.436 87.223 L 365.538 88.043 365.538 125.025 C 365.538 154.420,365.486 162.028,365.282 162.110 C 365.141 162.166,327.860 176.892,282.436 194.833 L 199.846 227.455 117.103 194.776 L 34.359 162.097 34.359 125.035 L 34.359 87.974 117.098 55.297 L 199.838 22.619 202.842 23.800 C 204.494 24.449,240.831 38.800,283.590 55.692 M197.887 48.654 C 185.820 49.723,178.220 63.135,183.397 74.224 C 189.825 87.992,209.212 88.316,216.006 74.769 C 222.450 61.920,212.356 47.372,197.887 48.654 M204.270 50.455 C 217.034 54.073,220.834 69.800,211.157 78.961 C 202.427 87.224,187.759 83.474,183.922 71.996 C 179.699 59.364,191.526 46.844,204.270 50.455 M197.436 50.882 C 181.880 53.316,178.612 74.122,192.718 80.920 C 203.491 86.112,215.843 78.499,215.843 66.667 C 215.843 56.966,207.002 49.385,197.436 50.882 M203.248 60.073 C 203.210 60.170,202.081 63.124,200.738 66.638 L 198.296 73.026 197.631 73.026 L 196.967 73.026 199.016 67.641 C 200.143 64.679,201.260 61.726,201.497 61.077 C 201.906 59.958,201.964 59.897,202.622 59.897 C 203.004 59.897,203.285 59.977,203.248 60.073 M195.890 62.617 C 197.424 63.386,197.628 63.553,197.641 64.051 C 197.658 64.766,197.670 64.767,195.632 63.826 L 193.923 63.036 190.453 64.550 C 188.545 65.382,186.909 66.137,186.819 66.227 C 186.729 66.317,188.319 67.111,190.353 67.992 L 194.051 69.593 194.051 70.281 L 194.051 70.969 192.974 70.498 C 192.382 70.238,190.351 69.348,188.462 68.518 L 185.026 67.011 185.029 66.275 L 185.033 65.538 189.286 63.662 C 194.312 61.445,193.733 61.537,195.890 62.617 M210.406 63.639 L 214.760 65.538 214.765 66.277 L 214.769 67.016 210.263 68.991 L 205.756 70.966 203.962 70.098 C 202.153 69.223,202.000 69.039,202.236 68.013 C 202.247 67.964,203.053 68.292,204.027 68.742 L 205.798 69.560 209.464 67.971 C 211.481 67.097,213.061 66.314,212.975 66.231 C 212.890 66.148,211.251 65.392,209.333 64.551 C 205.964 63.074,205.844 63.001,205.782 62.383 C 205.697 61.541,205.434 61.470,210.406 63.639 M42.872 125.745 L 42.872 149.971 57.590 149.901 L 72.308 149.831 74.311 149.285 C 94.543 143.775,97.066 112.948,78.051 103.586 C 74.044 101.613,74.653 101.673,57.692 101.590 L 42.872 101.518 42.872 125.745 M96.000 125.734 L 96.000 149.949 96.923 149.949 L 97.846 149.949 97.846 126.769 L 97.846 103.590 112.011 103.590 C 127.696 103.590,127.682 103.589,130.600 104.926 C 140.644 109.527,142.977 122.197,135.190 129.846 C 131.231 133.734,128.956 134.359,118.751 134.359 L 111.795 134.359 111.795 135.282 L 111.795 136.205 115.578 136.205 C 118.381 136.205,119.402 136.271,119.521 136.462 C 119.610 136.603,120.619 139.672,121.764 143.282 L 123.846 149.846 124.915 149.909 C 125.949 149.969,125.979 149.956,125.830 149.499 C 124.098 144.172,121.726 136.394,121.807 136.313 C 122.023 136.097,123.443 136.212,123.640 136.462 C 123.751 136.603,124.832 139.695,126.041 143.333 L 128.239 149.949 129.248 149.949 C 129.803 149.949,130.256 149.924,130.256 149.894 C 130.256 149.864,129.243 146.801,128.003 143.087 C 126.764 139.373,125.772 136.319,125.798 136.299 C 125.825 136.279,126.273 136.207,126.795 136.139 L 127.744 136.015 129.131 140.059 C 129.894 142.283,130.977 145.418,131.538 147.026 L 132.558 149.949 133.561 149.949 C 134.113 149.949,134.564 149.914,134.564 149.871 C 134.564 149.829,133.500 146.672,132.199 142.857 C 130.897 139.042,129.870 135.822,129.916 135.703 C 130.008 135.463,131.464 134.883,131.609 135.028 C 131.694 135.113,136.821 149.717,136.821 149.875 C 136.821 149.916,137.282 149.949,137.846 149.949 C 138.410 149.949,138.872 149.909,138.872 149.862 C 138.872 149.814,137.672 146.242,136.205 141.925 C 134.738 137.608,133.538 134.055,133.538 134.030 C 133.538 134.005,134.127 133.565,134.847 133.051 C 145.226 125.645,143.648 109.152,132.008 103.389 C 128.392 101.599,129.117 101.663,111.538 101.587 L 96.000 101.519 96.000 125.734 M146.462 125.744 L 146.462 149.949 147.385 149.949 L 148.308 149.949 148.308 125.744 L 148.308 101.538 147.385 101.538 L 146.462 101.538 146.462 125.744 M150.564 125.744 L 150.564 149.949 151.590 149.949 L 152.615 149.949 152.615 125.744 L 152.615 101.538 151.590 101.538 L 150.564 101.538 150.564 125.744 M154.872 125.744 L 154.872 149.949 155.795 149.949 L 156.718 149.949 156.718 125.744 L 156.718 101.538 155.795 101.538 L 154.872 101.538 154.872 125.744 M158.974 125.744 L 158.974 149.949 160.000 149.949 L 161.026 149.949 161.026 125.744 L 161.026 101.538 160.000 101.538 L 158.974 101.538 158.974 125.744 M165.215 101.886 C 165.282 102.090,169.574 112.964,174.753 126.051 L 184.169 149.846 185.264 149.903 L 186.359 149.959 195.847 125.903 C 201.066 112.672,205.335 101.777,205.335 101.692 C 205.334 101.608,204.888 101.538,204.343 101.538 L 203.353 101.538 194.350 124.334 C 188.064 140.247,185.291 147.041,185.162 146.837 C 185.061 146.677,180.986 136.442,176.107 124.093 L 167.237 101.641 166.165 101.578 C 165.210 101.523,165.107 101.556,165.215 101.886 M169.671 101.718 C 169.711 101.829,173.297 110.927,177.641 121.936 L 185.538 141.953 186.105 140.693 L 186.671 139.434 179.207 120.538 L 171.743 101.641 170.671 101.578 C 170.029 101.541,169.628 101.597,169.671 101.718 M174.184 101.706 C 176.158 106.916,187.833 136.141,187.919 136.088 C 187.987 136.047,188.238 135.477,188.477 134.823 L 188.910 133.634 182.607 117.637 L 176.304 101.641 175.208 101.578 C 174.592 101.543,174.144 101.599,174.184 101.706 M178.928 102.194 C 179.079 102.567,181.644 109.075,184.626 116.658 C 187.609 124.240,190.103 130.378,190.170 130.299 C 190.236 130.219,190.484 129.632,190.721 128.994 L 191.151 127.833 185.979 114.737 L 180.808 101.641 179.730 101.579 L 178.652 101.517 178.928 102.194 M198.969 124.051 C 194.079 136.433,189.778 147.326,189.412 148.256 L 188.746 149.949 189.809 149.946 L 190.872 149.942 200.433 125.740 L 209.994 101.538 208.928 101.538 L 207.861 101.538 198.969 124.051 M205.177 119.848 C 201.198 129.916,196.893 140.808,195.609 144.051 L 193.275 149.949 194.330 149.948 L 195.385 149.948 203.477 129.487 C 207.928 118.233,212.235 107.341,213.047 105.282 L 214.524 101.538 213.467 101.540 L 212.410 101.542 205.177 119.848 M207.432 125.590 C 202.212 138.818,197.943 149.710,197.945 149.795 C 197.947 149.879,198.391 149.949,198.932 149.949 L 199.914 149.949 209.222 126.410 C 214.341 113.464,218.654 102.572,218.806 102.205 L 219.082 101.538 218.003 101.539 L 216.923 101.540 207.432 125.590 M223.179 125.744 L 223.179 149.949 224.103 149.949 L 225.026 149.949 225.026 125.744 L 225.026 101.538 224.103 101.538 L 223.179 101.538 223.179 125.744 M227.282 125.744 L 227.282 149.949 228.308 149.949 L 229.333 149.949 229.333 125.744 L 229.333 101.538 228.308 101.538 L 227.282 101.538 227.282 125.744 M231.590 125.744 L 231.590 149.949 232.513 149.949 L 233.436 149.949 233.436 125.744 L 233.436 101.538 232.513 101.538 L 231.590 101.538 231.590 125.744 M235.692 125.744 L 235.692 149.949 247.897 149.949 L 260.103 149.949 260.103 148.923 L 260.103 147.897 248.923 147.897 L 237.744 147.897 237.744 146.769 L 237.744 145.641 248.923 145.641 L 260.103 145.641 260.103 144.718 L 260.103 143.795 248.923 143.795 L 237.744 143.795 237.744 142.667 L 237.744 141.538 248.923 141.538 L 260.103 141.538 260.103 140.513 L 260.103 139.487 248.923 139.487 L 237.744 139.487 237.744 135.179 L 237.744 130.872 243.487 130.872 L 249.231 130.872 249.231 129.949 L 249.231 129.026 243.487 129.026 L 237.744 129.026 237.744 127.897 L 237.744 126.769 243.487 126.769 L 249.231 126.769 249.231 125.744 L 249.231 124.718 243.487 124.718 L 237.744 124.718 237.744 123.590 L 237.744 122.462 243.487 122.462 L 249.231 122.462 249.231 121.538 L 249.231 120.615 243.487 120.615 L 237.744 120.615 237.744 116.308 L 237.744 112.000 248.923 112.000 L 260.103 112.000 260.103 110.974 L 260.103 109.949 248.923 109.949 L 237.744 109.949 237.744 108.821 L 237.744 107.692 248.923 107.692 L 260.103 107.692 260.103 106.769 L 260.103 105.846 248.923 105.846 L 237.744 105.846 237.744 104.718 L 237.744 103.590 248.923 103.590 L 260.103 103.590 260.103 102.564 L 260.103 101.538 247.897 101.538 L 235.692 101.538 235.692 125.744 M265.436 125.744 L 265.436 149.949 266.359 149.949 L 267.282 149.949 267.282 127.783 C 267.282 115.245,267.360 105.665,267.461 105.727 C 267.559 105.788,271.361 112.901,275.909 121.534 L 284.178 137.231 285.279 137.231 L 286.380 137.231 284.575 133.783 C 283.582 131.887,279.355 123.856,275.181 115.937 L 267.593 101.538 266.515 101.538 L 265.436 101.538 265.436 125.744 M271.733 104.562 C 272.613 106.237,276.839 114.273,281.123 122.419 L 288.913 137.231 290.017 137.231 C 290.820 137.231,291.092 137.161,291.015 136.974 C 290.957 136.833,286.753 128.826,281.672 119.179 L 272.434 101.641 271.283 101.579 L 270.132 101.517 271.733 104.562 M276.066 103.748 C 276.707 104.974,280.923 113.011,285.436 121.608 L 293.641 137.240 294.843 137.184 L 296.044 137.128 304.283 121.500 C 308.814 112.904,312.589 105.804,312.671 105.722 C 312.753 105.640,312.821 115.557,312.821 127.761 L 312.821 149.949 313.846 149.949 L 314.872 149.949 314.872 125.744 L 314.872 101.538 313.692 101.545 L 312.513 101.552 303.702 118.358 C 298.856 127.601,294.853 135.126,294.806 135.080 C 294.759 135.033,290.774 127.490,285.950 118.318 L 277.178 101.641 276.039 101.580 L 274.901 101.519 276.066 103.748 M296.936 113.018 L 290.855 124.498 291.439 125.520 L 292.023 126.543 297.745 115.733 C 300.892 109.788,303.871 104.162,304.365 103.231 L 305.264 101.538 304.141 101.538 L 303.017 101.538 296.936 113.018 M300.568 115.300 L 293.341 129.054 293.864 130.086 C 294.151 130.653,294.419 131.085,294.458 131.046 C 294.558 130.946,309.949 101.701,309.949 101.612 C 309.949 101.571,309.464 101.540,308.872 101.542 L 307.795 101.546 300.568 115.300 M320.615 125.744 L 320.615 149.949 321.538 149.949 L 322.462 149.949 322.462 125.744 L 322.462 101.538 321.538 101.538 L 320.615 101.538 320.615 125.744 M324.718 125.744 L 324.718 149.949 325.744 149.949 L 326.769 149.949 326.769 125.744 L 326.769 101.538 325.744 101.538 L 324.718 101.538 324.718 125.744 M329.026 125.744 L 329.026 149.949 329.949 149.949 L 330.872 149.949 330.872 125.744 L 330.872 101.538 329.949 101.538 L 329.026 101.538 329.026 125.744 M333.128 125.744 L 333.128 149.949 345.333 149.949 L 357.538 149.949 357.538 148.923 L 357.538 147.897 346.359 147.897 L 335.179 147.897 335.179 146.769 L 335.179 145.641 346.359 145.641 L 357.538 145.641 357.538 144.718 L 357.538 143.795 346.359 143.795 L 335.179 143.795 335.179 142.667 L 335.179 141.538 346.359 141.538 L 357.538 141.538 357.538 140.513 L 357.538 139.487 346.359 139.487 L 335.179 139.487 335.179 135.179 L 335.179 130.872 340.923 130.872 L 346.667 130.872 346.667 129.949 L 346.667 129.026 340.923 129.026 L 335.179 129.026 335.179 127.897 L 335.179 126.769 340.923 126.769 L 346.667 126.769 346.667 125.744 L 346.667 124.718 340.923 124.718 L 335.179 124.718 335.179 123.590 L 335.179 122.462 340.923 122.462 L 346.667 122.462 346.667 121.538 L 346.667 120.615 340.923 120.615 L 335.179 120.615 335.179 116.308 L 335.179 112.000 346.359 112.000 L 357.538 112.000 357.538 110.974 L 357.538 109.949 346.359 109.949 L 335.179 109.949 335.179 108.821 L 335.179 107.692 346.359 107.692 L 357.538 107.692 357.538 106.769 L 357.538 105.846 346.359 105.846 L 335.179 105.846 335.179 104.718 L 335.179 103.590 346.359 103.590 L 357.538 103.590 357.538 102.564 L 357.538 101.538 345.333 101.538 L 333.128 101.538 333.128 125.744 M72.983 103.911 C 85.420 106.440,92.562 121.999,87.242 134.974 C 84.777 140.986,80.353 145.220,74.462 147.207 L 72.718 147.795 58.718 147.854 L 44.718 147.914 44.718 125.752 L 44.718 103.590 58.060 103.590 C 69.365 103.590,71.643 103.639,72.983 103.911 M46.974 125.752 L 46.974 145.658 59.744 145.598 L 72.513 145.537 74.154 144.979 C 89.978 139.597,91.123 114.426,75.873 107.184 C 73.118 105.875,72.847 105.854,59.231 105.850 L 46.974 105.846 46.974 125.752 M100.103 127.897 L 100.103 149.949 101.128 149.949 L 102.154 149.949 102.154 128.810 L 102.154 107.671 114.308 107.733 L 126.462 107.795 127.942 108.336 C 135.924 111.254,138.199 120.856,132.313 126.786 C 129.301 129.820,128.381 130.046,119.026 130.049 L 111.795 130.051 111.795 131.090 L 111.795 132.129 119.436 132.056 C 128.021 131.974,128.327 131.929,131.042 130.317 C 139.996 125.002,139.652 112.208,130.423 107.279 C 127.775 105.865,127.545 105.846,113.095 105.846 L 100.103 105.846 100.103 127.897 M73.621 108.398 C 86.779 112.976,88.684 133.930,76.643 141.633 C 73.517 143.632,72.206 143.795,59.236 143.795 L 49.026 143.795 49.026 125.731 L 49.026 107.667 60.462 107.733 L 71.897 107.799 73.621 108.398 M51.282 125.757 L 51.282 141.566 61.385 141.490 C 70.445 141.421,71.604 141.375,72.615 141.043 C 84.743 137.058,85.925 116.820,74.359 111.168 C 72.019 110.024,71.211 109.952,60.667 109.950 L 51.282 109.949 51.282 125.757 M104.410 129.949 L 104.410 149.949 105.333 149.949 L 106.256 149.949 106.256 130.967 L 106.256 111.985 116.256 112.044 L 126.256 112.103 127.282 112.607 C 132.736 115.293,132.802 122.776,127.394 125.313 L 126.256 125.846 119.026 125.909 L 111.795 125.973 111.795 126.884 L 111.795 127.795 118.981 127.795 C 125.702 127.795,126.248 127.767,127.425 127.371 C 134.836 124.875,135.401 114.432,128.314 110.966 C 126.350 110.006,125.585 109.949,114.639 109.949 L 104.410 109.949 104.410 129.949 M72.186 112.389 C 81.016 115.137,83.344 129.863,76.039 136.764 C 73.239 139.409,72.839 139.487,62.014 139.487 L 53.128 139.487 53.128 125.744 L 53.128 112.000 62.033 112.000 C 70.196 112.000,71.042 112.032,72.186 112.389 M309.590 114.448 L 308.718 116.069 308.718 133.009 L 308.718 149.949 309.641 149.949 L 310.564 149.949 310.564 131.385 C 310.564 121.174,310.541 112.822,310.513 112.823 C 310.485 112.825,310.069 113.556,309.590 114.448 M269.538 131.487 L 269.538 149.949 270.564 149.949 L 271.590 149.949 271.590 133.329 L 271.590 116.710 270.665 114.868 C 270.156 113.855,269.694 113.026,269.639 113.026 C 269.584 113.026,269.538 121.333,269.538 131.487 M55.385 125.744 L 55.385 137.249 63.436 137.188 L 71.487 137.128 72.786 136.424 C 79.929 132.551,79.750 118.386,72.513 114.859 L 71.487 114.359 63.436 114.299 L 55.385 114.239 55.385 125.744 M108.513 132.103 L 108.513 149.949 109.538 149.949 L 110.564 149.949 110.564 133.026 L 110.564 116.103 117.487 116.104 C 126.158 116.105,126.883 116.277,127.121 118.393 C 127.468 121.467,127.015 121.639,118.615 121.640 L 111.795 121.641 111.795 122.667 L 111.795 123.692 118.527 123.692 C 126.997 123.692,127.735 123.512,128.695 121.214 C 129.601 119.046,129.284 117.102,127.791 115.655 C 126.357 114.266,126.300 114.259,116.872 114.258 L 108.513 114.256 108.513 132.103 M71.715 116.656 C 76.729 119.339,77.628 128.926,73.298 133.555 C 71.726 135.235,71.475 135.282,64.000 135.282 L 57.538 135.282 57.485 125.680 L 57.432 116.077 64.152 116.141 C 70.620 116.203,70.903 116.222,71.715 116.656 M305.370 122.435 L 304.410 124.255 304.410 137.102 L 304.410 149.949 305.436 149.949 L 306.462 149.949 306.462 135.282 C 306.462 127.215,306.432 120.615,306.395 120.615 C 306.359 120.615,305.897 121.434,305.370 122.435 M273.856 135.436 L 273.846 149.949 274.769 149.949 L 275.692 149.949 275.682 137.179 L 275.672 124.410 274.769 122.667 L 273.867 120.923 273.856 135.436 M301.179 130.448 L 300.308 132.069 300.308 141.009 L 300.308 149.949 301.231 149.949 L 302.154 149.949 302.154 139.385 C 302.154 133.574,302.131 128.822,302.103 128.823 C 302.074 128.825,301.659 129.556,301.179 130.448 M277.949 139.487 L 277.949 149.949 278.974 149.949 L 280.000 149.949 280.000 141.329 L 280.000 132.710 279.075 130.868 C 278.566 129.855,278.105 129.026,278.049 129.026 C 277.994 129.026,277.949 133.733,277.949 139.487 " stroke="none" fill="#2d2d2d" fill-rule="evenodd"></path><path id="path1" d="M198.615 48.552 C 198.813 48.603,199.136 48.603,199.333 48.552 C 199.531 48.500,199.369 48.458,198.974 48.458 C 198.579 48.458,198.418 48.500,198.615 48.552 M200.462 48.552 C 200.659 48.603,200.982 48.603,201.179 48.552 C 201.377 48.500,201.215 48.458,200.821 48.458 C 200.426 48.458,200.264 48.500,200.462 48.552 M186.967 53.795 L 185.949 54.872 187.026 53.854 C 188.026 52.908,188.197 52.718,188.044 52.718 C 188.011 52.718,187.527 53.203,186.967 53.795 M183.040 66.667 C 183.040 67.400,183.077 67.700,183.123 67.333 C 183.168 66.967,183.168 66.367,183.123 66.000 C 183.077 65.633,183.040 65.933,183.040 66.667 M181.586 66.667 C 181.586 67.062,181.628 67.223,181.680 67.026 C 181.731 66.828,181.731 66.505,181.680 66.308 C 181.628 66.110,181.586 66.272,181.586 66.667 M186.863 79.436 C 187.366 79.972,187.805 80.410,187.838 80.410 C 187.992 80.410,187.829 80.226,186.923 79.376 L 185.949 78.462 186.863 79.436 M199.124 84.866 C 199.488 84.911,200.134 84.912,200.560 84.868 C 200.985 84.823,200.687 84.786,199.897 84.785 C 199.108 84.784,198.759 84.821,199.124 84.866 M365.434 125.026 C 365.434 145.446,365.458 153.770,365.487 143.522 C 365.517 133.275,365.517 116.567,365.487 106.394 C 365.458 96.221,365.434 104.605,365.434 125.026 M42.766 125.744 C 42.766 139.113,42.790 144.582,42.820 137.897 C 42.850 131.213,42.850 120.274,42.820 113.590 C 42.790 106.905,42.766 112.374,42.766 125.744 M95.894 125.744 C 95.894 139.113,95.919 144.582,95.949 137.897 C 95.979 131.213,95.979 120.274,95.949 113.590 C 95.919 106.905,95.894 112.374,95.894 125.744 M146.356 125.744 C 146.356 139.113,146.380 144.582,146.410 137.897 C 146.440 131.213,146.440 120.274,146.410 113.590 C 146.380 106.905,146.356 112.374,146.356 125.744 M154.766 125.744 C 154.766 139.113,154.790 144.582,154.820 137.897 C 154.850 131.213,154.850 120.274,154.820 113.590 C 154.790 106.905,154.766 112.374,154.766 125.744 M223.074 125.744 C 223.074 139.113,223.098 144.582,223.128 137.897 C 223.158 131.213,223.158 120.274,223.128 113.590 C 223.098 106.905,223.074 112.374,223.074 125.744 M231.484 125.744 C 231.484 139.113,231.508 144.582,231.538 137.897 C 231.568 131.213,231.568 120.274,231.538 113.590 C 231.508 106.905,231.484 112.374,231.484 125.744 M265.330 125.744 C 265.330 139.113,265.355 144.582,265.385 137.897 C 265.415 131.213,265.415 120.274,265.385 113.590 C 265.355 106.905,265.330 112.374,265.330 125.744 M320.510 125.744 C 320.510 139.113,320.534 144.582,320.564 137.897 C 320.594 131.213,320.594 120.274,320.564 113.590 C 320.534 106.905,320.510 112.374,320.510 125.744 M328.920 125.744 C 328.920 139.113,328.944 144.582,328.974 137.897 C 329.004 131.213,329.004 120.274,328.974 113.590 C 328.944 106.905,328.920 112.374,328.920 125.744 M83.282 107.141 C 83.282 107.176,83.582 107.476,83.949 107.808 L 84.615 108.410 84.013 107.744 C 83.451 107.122,83.282 106.983,83.282 107.141 M54.425 107.846 C 57.451 107.878,62.343 107.878,65.296 107.846 C 68.250 107.814,65.774 107.788,59.795 107.788 C 53.815 107.788,51.399 107.814,54.425 107.846 M107.832 107.846 C 111.011 107.878,116.272 107.878,119.524 107.846 C 122.775 107.814,120.174 107.788,113.744 107.788 C 107.313 107.788,104.652 107.814,107.832 107.846 M243.348 107.846 C 246.487 107.878,251.564 107.878,254.630 107.846 C 257.696 107.814,255.128 107.788,248.923 107.788 C 242.718 107.788,240.209 107.814,243.348 107.846 M340.784 107.846 C 343.923 107.878,348.999 107.878,352.066 107.846 C 355.132 107.814,352.564 107.788,346.359 107.788 C 340.154 107.788,337.645 107.814,340.784 107.846 M51.175 125.744 C 51.175 134.487,51.200 138.064,51.231 133.692 C 51.262 129.321,51.262 122.167,51.231 117.795 C 51.200 113.423,51.175 117.000,51.175 125.744 M104.304 129.949 C 104.304 141.005,104.329 145.498,104.359 139.933 C 104.389 134.368,104.389 125.322,104.359 119.831 C 104.329 114.339,104.304 118.892,104.304 129.949 M60.564 116.256 C 62.341 116.290,65.249 116.290,67.026 116.256 C 68.803 116.222,67.349 116.194,63.795 116.194 C 60.241 116.194,58.787 116.222,60.564 116.256 M113.987 116.256 C 115.926 116.290,119.156 116.290,121.166 116.256 C 123.176 116.223,121.590 116.195,117.641 116.195 C 113.692 116.195,112.048 116.222,113.987 116.256 M308.611 133.128 C 308.611 142.436,308.636 146.244,308.667 141.590 C 308.697 136.936,308.697 129.321,308.667 124.667 C 308.636 120.013,308.611 123.821,308.611 133.128 M131.338 118.769 C 131.338 119.277,131.378 119.485,131.427 119.231 C 131.476 118.977,131.476 118.562,131.427 118.308 C 131.378 118.054,131.338 118.262,131.338 118.769 M240.564 120.564 C 242.172 120.598,244.803 120.598,246.410 120.564 C 248.018 120.529,246.703 120.501,243.487 120.501 C 240.272 120.501,238.956 120.529,240.564 120.564 M338.000 120.564 C 339.608 120.598,342.238 120.598,343.846 120.564 C 345.454 120.529,344.138 120.501,340.923 120.501 C 337.708 120.501,336.392 120.529,338.000 120.564 M273.738 135.385 C 273.738 143.451,273.764 146.751,273.795 142.718 C 273.826 138.685,273.826 132.085,273.795 128.051 C 273.764 124.018,273.738 127.318,273.738 135.385 M115.141 127.948 C 117.038 127.982,120.084 127.982,121.910 127.948 C 123.737 127.914,122.185 127.887,118.462 127.887 C 114.738 127.887,113.244 127.915,115.141 127.948 M240.564 128.974 C 242.172 129.009,244.803 129.009,246.410 128.974 C 248.018 128.939,246.703 128.911,243.487 128.911 C 240.272 128.911,238.956 128.939,240.564 128.974 M338.000 128.974 C 339.608 129.009,342.238 129.009,343.846 128.974 C 345.454 128.939,344.138 128.911,340.923 128.911 C 337.708 128.911,336.392 128.939,338.000 128.974 M300.197 141.128 C 300.197 146.036,300.223 148.044,300.256 145.590 C 300.289 143.136,300.289 139.121,300.256 136.667 C 300.223 134.213,300.197 136.221,300.197 141.128 M60.679 135.333 C 62.407 135.367,65.176 135.367,66.833 135.333 C 68.490 135.298,67.077 135.270,63.692 135.270 C 60.308 135.270,58.952 135.299,60.679 135.333 M113.703 136.358 C 114.809 136.395,116.563 136.395,117.600 136.358 C 118.638 136.321,117.733 136.290,115.590 136.291 C 113.446 136.291,112.597 136.321,113.703 136.358 M121.770 136.367 C 121.715 136.457,122.009 136.496,122.425 136.455 C 123.560 136.343,123.695 136.239,122.730 136.221 C 122.257 136.212,121.825 136.278,121.770 136.367 M54.322 143.743 C 57.292 143.776,62.092 143.775,64.989 143.743 C 67.886 143.711,65.456 143.685,59.590 143.685 C 53.723 143.685,51.353 143.711,54.322 143.743 M243.348 143.743 C 246.487 143.775,251.564 143.775,254.630 143.743 C 257.696 143.712,255.128 143.685,248.923 143.685 C 242.718 143.686,240.209 143.712,243.348 143.743 M340.784 143.743 C 343.923 143.775,348.999 143.775,352.066 143.743 C 355.132 143.712,352.564 143.685,346.359 143.685 C 340.154 143.686,337.645 143.712,340.784 143.743 " stroke="none" fill="#767676" fill-rule="evenodd"></path><path id="path2" d="M196.975 27.795 C 196.977 28.246,197.019 28.407,197.068 28.151 C 197.117 27.896,197.115 27.527,197.064 27.331 C 197.013 27.135,196.973 27.344,196.975 27.795 M197.180 30.462 C 197.182 30.913,197.224 31.073,197.273 30.818 C 197.322 30.563,197.320 30.194,197.269 29.998 C 197.218 29.801,197.178 30.010,197.180 30.462 M196.150 30.564 C 196.150 30.959,196.192 31.121,196.244 30.923 C 196.296 30.726,196.296 30.403,196.244 30.205 C 196.192 30.008,196.150 30.169,196.150 30.564 M197.385 33.333 C 197.387 33.785,197.429 33.945,197.478 33.690 C 197.527 33.435,197.526 33.066,197.474 32.869 C 197.423 32.673,197.383 32.882,197.385 33.333 M203.128 35.538 C 203.180 36.216,203.898 36.542,204.019 35.944 C 204.048 35.800,204.025 35.777,203.968 35.892 C 203.756 36.320,203.305 36.084,203.192 35.487 C 203.079 34.880,203.078 34.881,203.128 35.538 M197.590 36.205 C 197.592 36.656,197.634 36.817,197.684 36.562 C 197.733 36.307,197.731 35.937,197.679 35.741 C 197.628 35.545,197.588 35.754,197.590 36.205 M173.949 37.808 C 173.949 37.843,174.249 38.143,174.615 38.474 L 175.282 39.077 174.680 38.410 C 174.118 37.789,173.949 37.649,173.949 37.808 M197.795 39.077 C 197.798 39.528,197.840 39.689,197.889 39.434 C 197.938 39.178,197.936 38.809,197.885 38.613 C 197.833 38.417,197.793 38.626,197.795 39.077 M202.667 39.373 C 202.667 39.704,202.740 40.021,202.829 40.076 C 202.918 40.131,202.954 39.860,202.909 39.473 C 202.808 38.611,202.667 38.552,202.667 39.373 M185.026 39.511 C 185.026 39.749,184.902 39.810,184.586 39.728 C 184.272 39.646,184.209 39.676,184.367 39.834 C 184.655 40.122,185.231 39.896,185.231 39.494 C 185.231 39.321,185.185 39.179,185.128 39.179 C 185.072 39.179,185.026 39.329,185.026 39.511 M191.385 39.643 C 191.385 39.823,191.223 40.012,191.026 40.064 C 190.689 40.152,190.690 40.159,191.032 40.181 C 191.403 40.205,191.747 39.678,191.513 39.444 C 191.442 39.374,191.385 39.463,191.385 39.643 M223.064 40.872 L 222.462 41.538 223.128 40.936 C 223.750 40.374,223.889 40.205,223.731 40.205 C 223.695 40.205,223.395 40.505,223.064 40.872 M208.039 40.742 C 208.229 40.799,208.432 41.002,208.488 41.192 C 208.563 41.443,208.580 41.426,208.550 41.131 C 208.525 40.891,208.339 40.705,208.100 40.681 C 207.804 40.650,207.787 40.667,208.039 40.742 M223.071 42.308 L 221.846 43.590 223.128 42.365 C 223.833 41.692,224.410 41.115,224.410 41.083 C 224.410 40.932,224.208 41.117,223.071 42.308 M197.983 42.000 C 197.950 42.837,197.686 43.153,197.469 42.615 C 197.395 42.431,197.361 42.427,197.350 42.603 C 197.326 42.951,197.742 43.161,197.981 42.922 C 198.091 42.811,198.145 42.362,198.100 41.924 L 198.018 41.128 197.983 42.000 M221.218 42.923 L 220.615 43.590 221.282 42.987 C 221.903 42.426,222.043 42.256,221.885 42.256 C 221.849 42.256,221.549 42.556,221.218 42.923 M179.077 43.551 C 179.077 43.587,179.377 43.887,179.744 44.218 L 180.410 44.821 179.808 44.154 C 179.246 43.532,179.077 43.393,179.077 43.551 M198.201 44.718 C 198.201 45.113,198.244 45.274,198.295 45.077 C 198.347 44.879,198.347 44.556,198.295 44.359 C 198.244 44.162,198.201 44.323,198.201 44.718 M219.167 45.179 L 218.564 45.846 219.179 45.308 C 219.518 45.011,219.933 44.719,220.103 44.657 C 220.368 44.561,220.366 44.543,220.090 44.529 C 219.913 44.520,219.498 44.813,219.167 45.179 M219.170 46.410 L 218.359 47.282 219.231 46.471 C 220.042 45.717,220.197 45.538,220.042 45.538 C 220.008 45.538,219.616 45.931,219.170 46.410 M215.269 49.487 L 214.667 50.154 215.333 49.551 C 215.955 48.990,216.094 48.821,215.936 48.821 C 215.901 48.821,215.601 49.121,215.269 49.487 M214.862 50.923 L 214.051 51.795 214.923 50.984 C 215.403 50.538,215.795 50.146,215.795 50.112 C 215.795 49.957,215.616 50.112,214.862 50.923 M180.843 52.597 C 180.968 52.925,180.919 52.970,180.547 52.873 C 180.302 52.809,180.154 52.840,180.217 52.942 C 180.375 53.198,180.869 53.176,181.037 52.905 C 181.112 52.783,181.066 52.575,180.934 52.444 C 180.751 52.262,180.729 52.298,180.843 52.597 M186.756 53.795 L 186.154 54.462 186.821 53.859 C 187.187 53.528,187.487 53.228,187.487 53.192 C 187.487 53.034,187.318 53.173,186.756 53.795 M211.479 54.821 C 212.329 55.726,212.513 55.889,212.513 55.735 C 212.513 55.702,212.074 55.264,211.538 54.761 L 210.564 53.846 211.479 54.821 M177.436 63.692 C 177.819 64.087,178.178 64.410,178.234 64.410 C 178.291 64.410,178.024 64.087,177.641 63.692 C 177.258 63.297,176.899 62.974,176.843 62.974 C 176.786 62.974,177.053 63.297,177.436 63.692 M185.026 66.244 C 185.026 66.576,185.099 66.893,185.188 66.948 C 185.277 67.003,185.313 66.732,185.268 66.345 C 185.167 65.482,185.026 65.424,185.026 66.244 M214.548 66.308 C 214.487 66.748,214.518 67.000,214.621 66.897 C 214.720 66.798,214.768 66.452,214.728 66.128 C 214.660 65.585,214.646 65.600,214.548 66.308 M216.466 66.667 C 216.466 67.174,216.506 67.382,216.555 67.128 C 216.604 66.874,216.604 66.459,216.555 66.205 C 216.506 65.951,216.466 66.159,216.466 66.667 M193.744 70.173 C 193.744 70.501,193.813 70.769,193.897 70.769 C 193.982 70.769,194.051 70.544,194.051 70.269 C 194.051 69.993,193.982 69.725,193.897 69.673 C 193.813 69.620,193.744 69.846,193.744 70.173 M158.244 72.872 L 157.641 73.538 158.308 72.936 C 158.674 72.605,158.974 72.305,158.974 72.269 C 158.974 72.111,158.805 72.250,158.244 72.872 M197.128 72.872 C 197.128 72.956,197.354 73.026,197.629 73.026 C 197.904 73.026,198.172 72.956,198.225 72.872 C 198.277 72.787,198.052 72.718,197.724 72.718 C 197.396 72.718,197.128 72.787,197.128 72.872 M139.128 73.583 C 139.438 73.630,139.946 73.630,140.256 73.583 C 140.567 73.536,140.313 73.497,139.692 73.497 C 139.072 73.497,138.818 73.536,139.128 73.583 M259.538 73.583 C 259.849 73.630,260.356 73.630,260.667 73.583 C 260.977 73.536,260.723 73.497,260.103 73.497 C 259.482 73.497,259.228 73.536,259.538 73.583 M135.269 75.128 L 134.667 75.795 135.333 75.192 C 135.700 74.861,136.000 74.561,136.000 74.526 C 136.000 74.367,135.831 74.507,135.269 75.128 M263.795 74.526 C 263.795 74.561,264.095 74.861,264.462 75.192 L 265.128 75.795 264.526 75.128 C 263.964 74.507,263.795 74.367,263.795 74.526 M139.026 74.815 C 139.392 74.861,139.992 74.861,140.359 74.815 C 140.726 74.770,140.426 74.732,139.692 74.732 C 138.959 74.732,138.659 74.770,139.026 74.815 M259.436 74.815 C 259.803 74.861,260.403 74.861,260.769 74.815 C 261.136 74.770,260.836 74.732,260.103 74.732 C 259.369 74.732,259.069 74.770,259.436 74.815 M240.295 77.590 L 239.692 78.256 240.359 77.654 C 240.980 77.092,241.120 76.923,240.961 76.923 C 240.926 76.923,240.626 77.223,240.295 77.590 M162.346 78.205 L 161.744 78.872 162.410 78.269 C 162.777 77.938,163.077 77.638,163.077 77.603 C 163.077 77.444,162.908 77.584,162.346 78.205 M211.580 78.410 L 210.769 79.282 211.641 78.471 C 212.452 77.717,212.607 77.538,212.452 77.538 C 212.418 77.538,212.026 77.931,211.580 78.410 M236.718 77.603 C 236.718 77.638,237.018 77.938,237.385 78.269 L 238.051 78.872 237.449 78.205 C 236.887 77.584,236.718 77.444,236.718 77.603 M264.667 79.282 C 264.669 79.733,264.711 79.894,264.760 79.639 C 264.810 79.383,264.808 79.014,264.756 78.818 C 264.705 78.622,264.665 78.831,264.667 79.282 M166.718 81.995 C 167.085 82.040,167.685 82.040,168.051 81.995 C 168.418 81.949,168.118 81.912,167.385 81.912 C 166.651 81.912,166.351 81.949,166.718 81.995 M231.739 81.994 C 232.103 82.040,232.749 82.040,233.175 81.996 C 233.601 81.951,233.303 81.914,232.513 81.913 C 231.723 81.913,231.375 81.949,231.739 81.994 M372.821 125.026 C 372.821 148.189,372.890 167.098,372.974 167.045 C 373.176 166.921,373.176 83.130,372.974 83.006 C 372.890 82.954,372.821 101.863,372.821 125.026 M34.357 125.128 C 34.357 145.492,34.381 153.823,34.410 143.641 C 34.440 133.459,34.440 116.797,34.410 106.615 C 34.381 96.433,34.357 104.764,34.357 125.128 M126.735 88.564 C 167.049 88.593,232.957 88.593,273.196 88.564 C 313.436 88.536,280.451 88.512,199.897 88.512 C 119.344 88.512,86.420 88.536,126.735 88.564 M49.707 101.487 C 53.523 101.518,59.708 101.518,63.451 101.487 C 67.194 101.456,64.072 101.430,56.513 101.430 C 48.954 101.430,45.891 101.456,49.707 101.487 M103.128 101.487 C 107.105 101.518,113.613 101.518,117.590 101.487 C 121.567 101.456,118.313 101.430,110.359 101.430 C 102.405 101.430,99.151 101.456,103.128 101.487 M146.926 101.481 C 147.238 101.528,147.699 101.526,147.952 101.478 C 148.204 101.429,147.949 101.390,147.385 101.392 C 146.821 101.394,146.614 101.433,146.926 101.481 M150.458 101.579 C 150.402 101.726,150.380 112.692,150.410 125.949 L 150.463 150.051 150.514 125.795 L 150.564 101.538 151.589 101.538 L 152.614 101.538 152.667 125.692 L 152.720 149.846 152.719 125.641 L 152.718 101.436 151.639 101.374 C 150.894 101.331,150.528 101.395,150.458 101.579 M155.336 101.481 C 155.648 101.528,156.109 101.526,156.362 101.478 C 156.614 101.429,156.359 101.390,155.795 101.392 C 155.231 101.394,155.024 101.433,155.336 101.481 M158.868 101.579 C 158.812 101.726,158.790 112.692,158.820 125.949 L 158.874 150.051 158.924 125.795 L 158.974 101.538 159.999 101.538 L 161.024 101.538 161.077 125.692 L 161.131 149.846 161.129 125.641 L 161.128 101.436 160.049 101.374 C 159.304 101.331,158.938 101.395,158.868 101.579 M165.590 101.480 C 165.900 101.527,166.408 101.527,166.718 101.480 C 167.028 101.433,166.774 101.395,166.154 101.395 C 165.533 101.395,165.279 101.433,165.590 101.480 M170.103 101.480 C 170.413 101.527,170.921 101.527,171.231 101.480 C 171.541 101.433,171.287 101.395,170.667 101.395 C 170.046 101.395,169.792 101.433,170.103 101.480 M174.081 101.491 C 174.027 101.578,174.368 101.619,174.838 101.583 C 176.218 101.476,176.386 101.383,175.243 101.357 C 174.657 101.344,174.134 101.404,174.081 101.491 M178.593 101.491 C 178.540 101.578,178.881 101.619,179.351 101.583 C 180.731 101.476,180.899 101.383,179.756 101.357 C 179.170 101.344,178.647 101.404,178.593 101.491 M203.211 101.487 C 203.159 101.572,203.546 101.613,204.071 101.580 C 205.569 101.484,205.751 101.383,204.474 101.357 C 203.832 101.344,203.263 101.403,203.211 101.487 M207.724 101.487 C 207.672 101.572,208.059 101.613,208.584 101.580 C 210.082 101.484,210.263 101.383,208.986 101.357 C 208.344 101.344,207.776 101.403,207.724 101.487 M212.875 101.482 C 213.244 101.528,213.798 101.527,214.106 101.480 C 214.414 101.433,214.113 101.396,213.436 101.397 C 212.759 101.398,212.507 101.436,212.875 101.482 M217.026 101.450 C 217.715 101.604,219.236 101.631,219.148 101.487 C 219.096 101.403,218.527 101.344,217.885 101.357 C 217.243 101.370,216.856 101.412,217.026 101.450 M223.644 101.481 C 223.956 101.528,224.417 101.526,224.669 101.478 C 224.922 101.429,224.667 101.390,224.103 101.392 C 223.538 101.394,223.332 101.433,223.644 101.481 M227.176 101.579 C 227.120 101.726,227.098 112.692,227.128 125.949 L 227.181 150.051 227.232 125.795 L 227.282 101.538 228.307 101.538 L 229.332 101.538 229.385 125.692 L 229.438 149.846 229.437 125.641 L 229.436 101.436 228.357 101.374 C 227.612 101.331,227.246 101.395,227.176 101.579 M232.054 101.481 C 232.366 101.528,232.827 101.526,233.080 101.478 C 233.332 101.429,233.077 101.390,232.513 101.392 C 231.949 101.394,231.742 101.433,232.054 101.481 M235.582 101.588 C 235.528 101.730,235.508 112.692,235.538 125.949 L 235.591 150.051 235.642 125.795 L 235.692 101.538 247.897 101.538 L 260.103 101.538 260.103 102.564 L 260.103 103.590 248.923 103.590 L 237.744 103.590 237.781 104.667 L 237.818 105.744 237.894 104.771 L 237.971 103.798 249.088 103.745 L 260.205 103.692 260.205 102.564 L 260.205 101.436 247.943 101.383 C 238.242 101.341,235.660 101.384,235.582 101.588 M265.641 101.450 C 266.330 101.604,267.852 101.631,267.763 101.487 C 267.711 101.403,267.143 101.344,266.501 101.357 C 265.859 101.370,265.472 101.412,265.641 101.450 M270.083 101.487 C 270.031 101.572,270.418 101.613,270.943 101.580 C 272.441 101.484,272.622 101.383,271.345 101.357 C 270.703 101.344,270.135 101.403,270.083 101.487 M275.440 101.482 C 275.808 101.528,276.362 101.527,276.670 101.480 C 276.979 101.433,276.677 101.396,276.000 101.397 C 275.323 101.398,275.071 101.436,275.440 101.482 M303.179 101.450 C 303.869 101.604,305.390 101.631,305.302 101.487 C 305.249 101.403,304.681 101.344,304.039 101.357 C 303.397 101.370,303.010 101.412,303.179 101.450 M307.621 101.487 C 307.569 101.572,307.956 101.614,308.481 101.581 C 310.109 101.479,310.312 101.390,308.986 101.361 C 308.288 101.346,307.674 101.403,307.621 101.487 M313.742 101.481 L 314.870 101.559 314.924 125.805 L 314.977 150.051 314.976 125.744 L 314.974 101.436 313.794 101.419 L 312.613 101.402 313.742 101.481 M321.080 101.481 C 321.392 101.528,321.853 101.526,322.105 101.478 C 322.358 101.429,322.103 101.390,321.538 101.392 C 320.974 101.394,320.768 101.433,321.080 101.481 M324.612 101.579 C 324.556 101.726,324.534 112.692,324.563 125.949 L 324.617 150.051 324.668 125.795 L 324.718 101.538 325.743 101.538 L 326.768 101.538 326.821 125.692 L 326.874 149.846 326.873 125.641 L 326.872 101.436 325.793 101.374 C 325.048 101.331,324.682 101.395,324.612 101.579 M329.490 101.481 C 329.802 101.528,330.263 101.526,330.516 101.478 C 330.768 101.429,330.513 101.390,329.949 101.392 C 329.385 101.394,329.178 101.433,329.490 101.481 M333.018 101.588 C 332.964 101.730,332.944 112.692,332.974 125.949 L 333.027 150.051 333.078 125.795 L 333.128 101.538 345.333 101.538 L 357.538 101.538 357.538 102.564 L 357.538 103.590 346.359 103.590 L 335.179 103.590 335.216 104.667 L 335.253 105.744 335.330 104.771 L 335.407 103.798 346.524 103.745 L 357.641 103.692 357.641 102.564 L 357.641 101.436 345.379 101.383 C 335.678 101.341,333.096 101.384,333.018 101.588 M51.333 103.743 C 54.915 103.775,60.777 103.775,64.359 103.743 C 67.941 103.712,65.010 103.686,57.846 103.686 C 50.682 103.686,47.751 103.712,51.333 103.743 M104.872 103.743 C 108.679 103.775,114.910 103.775,118.718 103.743 C 122.526 103.712,119.410 103.687,111.795 103.687 C 104.179 103.687,101.064 103.712,104.872 103.743 M46.868 125.744 C 46.868 136.856,46.893 141.403,46.923 135.846 C 46.953 130.290,46.953 121.197,46.923 115.641 C 46.893 110.085,46.868 114.631,46.868 125.744 M99.996 127.795 C 99.996 140.036,100.021 145.044,100.051 138.923 C 100.081 132.803,100.081 122.787,100.051 116.667 C 100.021 110.546,99.996 115.554,99.996 127.795 M260.166 106.769 C 260.167 107.446,260.206 107.698,260.251 107.330 C 260.297 106.961,260.296 106.407,260.249 106.099 C 260.202 105.791,260.165 106.092,260.166 106.769 M357.602 106.769 C 357.603 107.446,357.641 107.698,357.687 107.330 C 357.733 106.961,357.732 106.407,357.685 106.099 C 357.638 105.791,357.601 106.092,357.602 106.769 M136.718 106.667 C 137.159 107.118,137.565 107.487,137.622 107.487 C 137.678 107.487,137.364 107.118,136.923 106.667 C 136.482 106.215,136.076 105.846,136.019 105.846 C 135.963 105.846,136.277 106.215,136.718 106.667 M312.576 106.000 C 312.541 106.085,312.560 116.031,312.617 128.103 L 312.721 150.051 312.771 127.949 C 312.798 115.792,312.780 105.846,312.730 105.846 C 312.680 105.846,312.611 105.915,312.576 106.000 M49.124 125.744 C 49.124 135.615,49.149 139.654,49.179 134.718 C 49.210 129.782,49.210 121.705,49.179 116.769 C 49.149 111.833,49.124 115.872,49.124 125.744 M102.253 128.923 C 102.253 140.544,102.277 145.267,102.308 139.420 C 102.338 133.573,102.338 124.065,102.308 118.292 C 102.277 112.519,102.253 117.303,102.253 128.923 M237.805 108.923 C 237.805 109.544,237.844 109.797,237.891 109.487 C 237.938 109.177,237.938 108.669,237.891 108.359 C 237.844 108.049,237.805 108.303,237.805 108.923 M335.241 108.923 C 335.241 109.544,335.279 109.797,335.326 109.487 C 335.373 109.177,335.373 108.669,335.326 108.359 C 335.279 108.049,335.241 108.303,335.241 108.923 M82.154 109.128 C 82.709 109.692,83.210 110.154,83.267 110.154 C 83.323 110.154,82.915 109.692,82.359 109.128 C 81.803 108.564,81.303 108.103,81.246 108.103 C 81.190 108.103,81.598 108.564,82.154 109.128 M133.744 109.641 C 134.126 110.036,134.486 110.359,134.542 110.359 C 134.598 110.359,134.331 110.036,133.949 109.641 C 133.566 109.246,133.207 108.923,133.150 108.923 C 133.094 108.923,133.361 109.246,133.744 109.641 M260.138 110.923 L 260.103 112.000 248.923 112.000 L 237.744 112.000 237.790 116.256 L 237.837 120.513 237.897 116.359 L 237.957 112.205 249.036 112.205 C 261.340 112.205,260.395 112.328,260.254 110.741 C 260.175 109.856,260.174 109.858,260.138 110.923 M357.574 110.923 L 357.538 112.000 346.359 112.000 L 335.179 112.000 335.226 116.256 L 335.273 120.513 335.333 116.359 L 335.393 112.205 346.472 112.205 C 358.776 112.205,357.831 112.328,357.690 110.741 C 357.611 109.856,357.610 109.858,357.574 110.923 M79.179 112.103 C 79.562 112.497,79.922 112.821,79.978 112.821 C 80.034 112.821,79.767 112.497,79.385 112.103 C 79.002 111.708,78.643 111.385,78.586 111.385 C 78.530 111.385,78.797 111.708,79.179 112.103 M57.604 112.154 C 60.009 112.187,63.886 112.186,66.219 112.154 C 68.552 112.121,66.585 112.094,61.846 112.094 C 57.108 112.094,55.199 112.121,57.604 112.154 M111.142 112.154 C 113.773 112.186,118.019 112.186,120.578 112.154 C 123.137 112.121,120.985 112.095,115.795 112.095 C 110.605 112.095,108.511 112.121,111.142 112.154 M269.333 131.179 C 269.333 141.540,269.379 149.972,269.434 149.917 C 269.569 149.781,269.576 112.584,269.440 112.449 C 269.381 112.390,269.333 120.819,269.333 131.179 M55.275 125.641 C 55.275 132.072,55.301 134.673,55.333 131.421 C 55.365 128.170,55.365 122.908,55.333 119.729 C 55.301 116.550,55.275 119.210,55.275 125.641 M108.406 132.000 C 108.406 141.928,108.431 146.020,108.461 141.092 C 108.492 136.165,108.492 128.042,108.461 123.041 C 108.431 118.040,108.406 122.072,108.406 132.000 M74.564 116.308 C 75.005 116.759,75.411 117.128,75.468 117.128 C 75.524 117.128,75.210 116.759,74.769 116.308 C 74.329 115.856,73.922 115.487,73.865 115.487 C 73.809 115.487,74.123 115.856,74.564 116.308 M57.531 125.744 C 57.531 130.990,57.557 133.136,57.590 130.513 C 57.622 127.890,57.622 123.597,57.590 120.974 C 57.557 118.351,57.531 120.497,57.531 125.744 M110.662 133.128 C 110.662 142.436,110.687 146.244,110.718 141.590 C 110.749 136.936,110.749 129.321,110.718 124.667 C 110.687 120.013,110.662 123.821,110.662 133.128 M271.688 133.231 C 271.688 142.482,271.713 146.237,271.744 141.574 C 271.774 136.912,271.774 129.343,271.744 124.754 C 271.713 120.165,271.688 123.979,271.688 133.231 M135.448 118.667 C 135.449 119.344,135.488 119.596,135.533 119.227 C 135.579 118.858,135.578 118.305,135.531 117.996 C 135.484 117.688,135.447 117.990,135.448 118.667 M127.022 118.769 C 127.022 119.164,127.064 119.326,127.116 119.128 C 127.167 118.931,127.167 118.608,127.116 118.410 C 127.064 118.213,127.022 118.374,127.022 118.769 M137.689 118.769 C 137.689 119.164,137.731 119.326,137.782 119.128 C 137.834 118.931,137.834 118.608,137.782 118.410 C 137.731 118.213,137.689 118.374,137.689 118.769 M249.294 121.538 C 249.295 122.215,249.334 122.468,249.379 122.099 C 249.425 121.730,249.424 121.176,249.377 120.868 C 249.331 120.560,249.293 120.862,249.294 121.538 M346.730 121.538 C 346.731 122.215,346.770 122.468,346.815 122.099 C 346.861 121.730,346.860 121.176,346.813 120.868 C 346.766 120.560,346.729 120.862,346.730 121.538 M111.673 122.667 L 111.692 123.795 118.462 123.799 L 125.231 123.804 118.523 123.745 L 111.816 123.687 111.735 122.613 L 111.653 121.538 111.673 122.667 M237.781 123.641 L 237.744 124.718 243.487 124.718 L 249.231 124.718 249.231 125.744 L 249.231 126.769 243.487 126.769 L 237.744 126.769 237.781 127.846 L 237.818 128.923 237.894 127.952 L 237.971 126.981 243.652 126.926 L 249.333 126.872 249.333 125.744 L 249.333 124.615 243.652 124.561 L 237.971 124.506 237.894 123.535 L 237.818 122.564 237.781 123.641 M335.216 123.641 L 335.179 124.718 340.923 124.718 L 346.667 124.718 346.667 125.744 L 346.667 126.769 340.923 126.769 L 335.179 126.769 335.216 127.846 L 335.253 128.923 335.330 127.952 L 335.407 126.981 341.088 126.926 L 346.769 126.872 346.769 125.744 L 346.769 124.615 341.088 124.561 L 335.407 124.506 335.330 123.535 L 335.253 122.564 335.216 123.641 M86.825 124.718 C 86.825 125.226,86.865 125.433,86.914 125.179 C 86.963 124.926,86.963 124.510,86.914 124.256 C 86.865 124.003,86.825 124.210,86.825 124.718 M88.876 124.718 C 88.876 125.226,88.916 125.433,88.965 125.179 C 89.014 124.926,89.014 124.510,88.965 124.256 C 88.916 124.003,88.876 124.210,88.876 124.718 M304.302 137.026 C 304.302 144.190,304.327 147.121,304.359 143.538 C 304.390 139.956,304.390 134.095,304.359 130.513 C 304.327 126.931,304.302 129.862,304.302 137.026 M82.531 125.744 C 82.531 126.590,82.567 126.936,82.611 126.513 C 82.655 126.090,82.655 125.397,82.611 124.974 C 82.567 124.551,82.531 124.897,82.531 125.744 M84.582 125.744 C 84.582 126.590,84.618 126.936,84.662 126.513 C 84.707 126.090,84.707 125.397,84.662 124.974 C 84.618 124.551,84.582 124.897,84.582 125.744 M78.215 125.744 C 78.215 126.364,78.254 126.618,78.301 126.308 C 78.348 125.997,78.348 125.490,78.301 125.179 C 78.254 124.869,78.215 125.123,78.215 125.744 M80.267 125.744 C 80.267 126.364,80.305 126.618,80.352 126.308 C 80.399 125.997,80.399 125.490,80.352 125.179 C 80.305 124.869,80.267 125.123,80.267 125.744 M86.821 126.667 C 86.823 127.118,86.865 127.278,86.914 127.023 C 86.963 126.768,86.962 126.399,86.910 126.203 C 86.859 126.007,86.819 126.215,86.821 126.667 M88.876 126.769 C 88.876 127.277,88.916 127.485,88.965 127.231 C 89.014 126.977,89.014 126.562,88.965 126.308 C 88.916 126.054,88.876 126.262,88.876 126.769 M111.651 126.974 C 111.651 127.595,111.690 127.849,111.737 127.538 C 111.784 127.228,111.784 126.721,111.737 126.410 C 111.690 126.100,111.651 126.354,111.651 126.974 M277.790 139.333 C 277.816 145.228,277.862 148.344,277.892 146.256 C 278.035 136.501,278.037 128.615,277.897 128.615 C 277.813 128.615,277.765 133.438,277.790 139.333 M249.294 129.949 C 249.295 130.626,249.334 130.878,249.379 130.509 C 249.425 130.140,249.424 129.587,249.377 129.278 C 249.331 128.970,249.293 129.272,249.294 129.949 M346.730 129.949 C 346.731 130.626,346.770 130.878,346.815 130.509 C 346.861 130.140,346.860 129.587,346.813 129.278 C 346.766 128.970,346.729 129.272,346.730 129.949 M111.673 131.077 L 111.692 132.205 118.718 132.209 L 125.744 132.213 118.780 132.155 L 111.816 132.097 111.735 131.023 L 111.653 129.949 111.673 131.077 M237.840 135.231 L 237.846 139.385 248.964 139.438 L 260.081 139.491 260.157 140.566 L 260.232 141.641 260.270 140.462 L 260.308 139.282 249.132 139.282 L 237.957 139.282 237.895 135.179 L 237.833 131.077 237.840 135.231 M335.276 135.231 L 335.282 139.385 346.400 139.438 L 357.517 139.491 357.592 140.566 L 357.668 141.641 357.706 140.462 L 357.744 139.282 346.568 139.282 L 335.393 139.282 335.331 135.179 L 335.269 131.077 335.276 135.231 M280.094 141.231 C 280.094 146.082,280.121 148.037,280.154 145.576 C 280.186 143.114,280.186 139.145,280.154 136.755 C 280.121 134.366,280.094 136.379,280.094 141.231 M74.656 135.128 L 73.949 135.897 74.718 135.191 C 75.434 134.533,75.581 134.359,75.425 134.359 C 75.391 134.359,75.044 134.705,74.656 135.128 M111.651 135.385 C 111.651 136.005,111.690 136.259,111.737 135.949 C 111.784 135.638,111.784 135.131,111.737 134.821 C 111.690 134.510,111.651 134.764,111.651 135.385 M79.064 139.538 L 78.462 140.205 79.128 139.603 C 79.750 139.041,79.889 138.872,79.731 138.872 C 79.695 138.872,79.395 139.172,79.064 139.538 M57.501 139.436 C 59.849 139.469,63.634 139.469,65.911 139.436 C 68.188 139.403,66.267 139.376,61.641 139.376 C 57.015 139.376,55.152 139.403,57.501 139.436 M82.256 142.256 C 81.758 142.764,81.397 143.179,81.453 143.179 C 81.509 143.179,81.963 142.764,82.462 142.256 C 82.960 141.749,83.321 141.333,83.265 141.333 C 83.208 141.333,82.755 141.749,82.256 142.256 M237.805 142.564 C 237.805 143.185,237.844 143.438,237.891 143.128 C 237.938 142.818,237.938 142.310,237.891 142.000 C 237.844 141.690,237.805 141.944,237.805 142.564 M335.241 142.564 C 335.241 143.185,335.279 143.438,335.326 143.128 C 335.373 142.818,335.373 142.310,335.326 142.000 C 335.279 141.690,335.241 141.944,335.241 142.564 M260.166 144.718 C 260.167 145.395,260.206 145.647,260.251 145.278 C 260.297 144.910,260.296 144.356,260.249 144.048 C 260.202 143.739,260.165 144.041,260.166 144.718 M357.602 144.718 C 357.603 145.395,357.641 145.647,357.687 145.278 C 357.733 144.910,357.732 144.356,357.685 144.048 C 357.638 143.739,357.601 144.041,357.602 144.718 M237.825 146.769 L 237.846 147.795 248.964 147.848 L 260.081 147.901 260.157 148.976 L 260.232 150.051 260.270 148.872 L 260.308 147.692 249.139 147.692 L 237.971 147.692 237.888 146.718 L 237.804 145.744 237.825 146.769 M335.261 146.769 L 335.282 147.795 346.400 147.848 L 357.517 147.901 357.592 148.976 L 357.668 150.051 357.706 148.872 L 357.744 147.692 346.575 147.692 L 335.407 147.692 335.324 146.718 L 335.240 145.744 335.261 146.769 M51.348 147.846 C 54.938 147.878,60.754 147.877,64.271 147.846 C 67.789 147.815,64.851 147.789,57.744 147.789 C 50.636 147.789,47.758 147.815,51.348 147.846 M126.615 161.179 C 166.864 161.208,232.726 161.208,272.974 161.179 C 313.223 161.151,280.292 161.128,199.795 161.128 C 119.297 161.128,86.367 161.151,126.615 161.179 " stroke="none" fill="#e2e2e2" fill-rule="evenodd"></path><path id="path3" d="M113.538 48.902 L 27.179 83.019 27.128 124.974 C 27.086 158.428,27.128 166.952,27.333 167.036 C 27.474 167.094,66.388 182.469,113.809 201.201 L 200.028 235.259 286.424 201.138 L 372.821 167.017 372.821 125.007 L 372.821 82.997 286.462 48.886 C 238.964 30.125,200.056 14.778,200.000 14.781 C 199.944 14.784,161.036 30.138,113.538 48.902 M284.000 52.907 C 344.658 76.859,367.407 85.928,367.744 86.292 L 368.205 86.792 368.205 125.104 L 368.205 163.416 367.744 163.837 C 367.164 164.366,200.494 230.208,199.795 230.184 C 199.244 230.166,32.822 164.487,32.051 163.984 L 31.590 163.683 31.590 125.046 C 31.590 91.709,31.630 86.376,31.884 86.165 C 32.661 85.520,199.301 19.894,200.000 19.957 C 200.395 19.992,238.195 34.820,284.000 52.907 M117.079 55.460 L 34.466 88.103 34.464 125.028 L 34.462 161.954 117.154 194.612 L 199.846 227.271 282.585 194.610 L 365.324 161.949 365.277 125.033 L 365.231 88.117 282.769 55.546 C 237.415 37.633,200.169 22.940,200.000 22.896 C 199.831 22.853,162.516 37.506,117.079 55.460 M197.012 27.128 C 197.295 28.480,198.146 42.757,197.954 42.948 C 197.493 43.410,197.335 42.508,196.628 35.385 C 195.736 26.397,195.743 26.667,196.406 26.667 C 196.769 26.667,196.943 26.800,197.012 27.128 M204.858 29.622 C 204.356 34.943,203.901 36.803,203.258 36.160 C 202.977 35.879,203.790 28.501,204.124 28.294 C 204.743 27.912,204.980 28.338,204.858 29.622 M189.335 32.667 C 189.834 33.828,191.590 39.834,191.482 40.009 C 191.020 40.756,190.577 39.845,188.902 34.708 C 188.312 32.896,188.257 32.568,188.517 32.403 C 188.974 32.114,189.118 32.161,189.335 32.667 M211.221 32.836 C 211.276 33.505,208.991 40.056,208.667 40.159 C 208.003 40.367,209.645 33.515,210.513 32.455 C 210.825 32.074,211.173 32.261,211.221 32.836 M220.842 32.495 C 221.000 32.906,212.681 46.237,212.210 46.328 C 211.927 46.383,211.864 46.303,211.945 45.993 C 212.029 45.671,218.394 34.616,219.617 32.667 C 219.941 32.151,220.671 32.049,220.842 32.495 M183.443 36.085 C 185.172 39.261,185.417 40.000,184.740 40.000 C 184.466 40.000,180.718 33.754,180.718 33.299 C 180.718 33.013,181.186 32.600,181.421 32.679 C 181.534 32.717,182.444 34.249,183.443 36.085 M179.268 42.191 C 184.169 47.993,184.775 48.821,184.128 48.821 C 183.857 48.821,173.597 37.502,173.390 36.974 C 173.240 36.592,173.484 36.103,173.826 36.103 C 173.991 36.103,176.440 38.842,179.268 42.191 M203.708 38.565 C 203.487 39.937,203.266 40.346,202.876 40.105 C 202.591 39.929,202.802 37.380,203.135 36.964 C 203.637 36.339,203.933 37.168,203.708 38.565 M226.339 38.484 C 226.455 38.785,223.854 41.798,221.775 43.770 C 221.187 44.329,220.513 44.403,220.513 43.910 C 220.513 43.536,225.523 38.154,225.871 38.154 C 226.059 38.154,226.270 38.302,226.339 38.484 M186.451 41.652 C 187.069 42.812,187.155 43.487,186.683 43.487 C 186.436 43.487,185.026 41.120,185.026 40.707 C 185.026 39.940,185.818 40.465,186.451 41.652 M192.349 42.258 C 192.894 44.044,192.932 44.513,192.530 44.513 C 192.239 44.513,191.179 41.723,191.179 40.959 C 191.179 39.980,191.898 40.777,192.349 42.258 M208.528 40.888 C 208.637 41.174,207.679 44.065,207.363 44.400 C 206.800 44.998,206.767 44.067,207.291 42.385 C 207.816 40.703,208.253 40.173,208.528 40.888 M203.278 41.692 C 203.264 42.606,202.662 46.035,202.485 46.212 C 202.086 46.612,202.000 45.791,202.234 43.810 C 202.359 42.748,202.462 41.779,202.462 41.657 C 202.462 41.536,202.646 41.436,202.872 41.436 C 203.097 41.436,203.280 41.551,203.278 41.692 M198.359 45.141 C 198.359 46.275,198.044 46.635,197.743 45.845 C 197.511 45.236,197.470 44.034,197.673 43.831 C 197.992 43.512,198.359 44.213,198.359 45.141 M188.911 46.205 C 189.930 48.080,190.191 48.935,189.694 48.770 C 189.308 48.641,187.235 44.932,187.363 44.598 C 187.586 44.017,187.900 44.343,188.911 46.205 M220.378 44.810 C 220.529 45.205,218.746 47.179,218.237 47.179 C 217.634 47.179,217.764 46.807,218.785 45.612 C 219.740 44.494,220.173 44.276,220.378 44.810 M174.290 47.490 C 176.020 48.788,177.436 49.945,177.436 50.060 C 177.436 50.714,176.596 50.335,174.006 48.511 C 170.486 46.033,170.307 45.869,170.657 45.447 C 171.027 45.002,170.823 44.887,174.290 47.490 M193.314 45.302 C 193.579 45.731,193.685 47.179,193.452 47.179 C 193.196 47.179,192.615 45.974,192.615 45.442 C 192.615 45.111,193.131 45.007,193.314 45.302 M207.025 45.247 C 207.236 45.458,206.535 47.179,206.237 47.179 C 205.887 47.179,205.878 46.952,206.186 45.921 C 206.403 45.197,206.720 44.942,207.025 45.247 M229.128 45.724 C 229.128 46.076,223.488 50.214,222.741 50.409 C 221.505 50.733,222.541 49.591,225.440 47.435 C 228.422 45.219,229.128 44.891,229.128 45.724 M211.897 47.194 C 211.897 47.582,210.648 49.243,210.449 49.120 C 210.151 48.936,210.214 48.674,210.772 47.791 C 211.251 47.032,211.897 46.689,211.897 47.194 M217.231 48.229 C 217.231 48.581,214.354 51.692,214.030 51.692 C 213.468 51.692,213.766 51.157,215.197 49.590 C 216.536 48.123,217.231 47.659,217.231 48.229 M203.422 48.708 C 219.363 52.100,223.505 72.825,210.042 81.830 C 197.811 90.012,181.672 81.386,181.672 66.667 C 181.672 55.002,192.190 46.318,203.422 48.708 M185.825 49.956 C 186.428 50.643,186.656 51.282,186.298 51.282 C 185.973 51.282,184.572 49.673,184.707 49.454 C 184.931 49.091,185.152 49.190,185.825 49.956 M168.821 51.658 C 171.869 53.166,172.857 53.949,171.714 53.949 C 170.926 53.949,164.718 51.036,164.718 50.666 C 164.718 49.731,165.128 49.831,168.821 51.658 M196.410 50.392 C 184.219 52.999,179.119 67.686,187.076 77.273 C 195.762 87.740,212.832 83.735,216.008 70.485 C 218.817 58.771,208.187 47.874,196.410 50.392 M179.696 51.533 C 180.484 52.123,181.128 52.679,181.128 52.770 C 181.128 53.282,180.379 53.035,179.095 52.101 C 177.669 51.065,177.502 50.874,177.778 50.598 C 178.030 50.346,178.258 50.457,179.696 51.533 M221.948 50.821 C 221.947 51.170,219.351 53.128,218.888 53.128 C 218.307 53.128,218.796 52.429,220.031 51.494 C 221.474 50.402,221.949 50.235,221.948 50.821 M203.613 51.069 C 216.151 54.075,220.313 69.688,210.900 78.402 C 200.563 87.973,183.590 80.679,183.590 66.667 C 183.590 56.235,193.374 48.614,203.613 51.069 M236.880 51.186 C 236.933 51.554,236.069 51.960,229.557 54.622 C 221.783 57.801,221.744 57.815,221.744 57.341 C 221.744 56.946,221.623 57.005,229.333 53.608 C 236.041 50.653,236.770 50.419,236.880 51.186 M182.940 53.956 C 183.272 54.268,183.353 54.472,183.205 54.620 C 182.965 54.860,181.542 54.009,181.540 53.624 C 181.536 53.006,182.066 53.132,182.940 53.956 M217.649 54.171 C 216.872 54.825,216.410 54.936,216.410 54.469 C 216.410 54.023,217.880 53.078,218.146 53.353 C 218.295 53.506,218.144 53.753,217.649 54.171 M174.350 54.354 C 175.690 55.031,175.982 55.326,175.498 55.511 C 174.781 55.786,172.304 54.453,172.610 53.958 C 172.808 53.637,173.028 53.687,174.350 54.354 M179.337 56.742 C 181.544 57.845,181.469 57.792,181.197 58.064 C 180.829 58.433,176.473 56.396,176.732 55.977 C 176.938 55.643,177.429 55.788,179.337 56.742 M221.000 57.600 C 221.244 57.995,219.342 59.060,218.890 58.780 C 218.480 58.527,218.659 58.312,219.641 57.879 C 220.741 57.394,220.858 57.370,221.000 57.600 M201.948 60.359 C 201.898 60.500,200.874 63.200,199.672 66.359 C 197.012 73.351,197.154 72.875,197.745 72.787 C 198.258 72.711,198.087 73.104,201.333 64.564 C 203.000 60.179,203.020 60.103,202.534 60.103 C 202.261 60.103,201.998 60.218,201.948 60.359 M175.098 61.944 C 183.491 66.075,180.640 78.137,170.462 81.560 C 168.194 82.322,163.788 81.850,161.878 80.640 C 161.712 80.534,161.103 80.624,160.340 80.866 C 157.833 81.663,154.136 80.953,150.869 79.049 C 150.024 78.557,148.640 77.750,147.793 77.256 C 140.024 72.728,133.853 74.751,135.378 81.326 C 135.587 82.229,135.381 82.667,134.748 82.667 C 133.899 82.667,133.702 77.676,134.493 76.205 C 136.600 72.288,142.942 72.671,150.195 77.154 C 153.666 79.299,156.632 80.244,158.850 79.911 C 160.013 79.737,160.013 79.731,158.842 78.700 C 155.938 76.144,157.122 71.897,160.812 71.630 C 164.845 71.338,166.556 75.536,163.678 78.658 C 163.202 79.175,162.848 79.630,162.893 79.669 C 163.600 80.283,167.014 80.843,168.646 80.611 C 175.454 79.646,180.629 72.117,178.172 66.752 C 176.166 62.369,169.810 60.809,168.032 64.264 C 167.121 66.033,167.926 68.028,169.863 68.803 C 170.807 69.181,170.966 69.994,170.118 70.115 C 168.474 70.349,166.359 67.889,166.359 65.744 C 166.359 61.817,170.863 59.859,175.098 61.944 M230.999 61.701 C 232.923 62.706,233.909 65.124,233.233 67.174 C 232.563 69.204,229.379 71.097,229.166 69.594 C 229.113 69.226,229.264 69.071,229.932 68.803 C 233.600 67.336,232.485 62.382,228.483 62.363 C 222.844 62.337,219.392 68.173,221.901 73.490 C 224.581 79.170,230.209 81.827,235.846 80.074 C 237.084 79.689,237.112 79.632,236.388 78.959 C 233.352 76.135,234.745 71.590,238.647 71.590 C 242.586 71.590,243.980 75.930,240.940 78.731 C 239.792 79.790,239.792 79.739,240.945 79.911 C 243.161 80.244,246.062 79.327,249.595 77.178 C 258.880 71.533,265.849 72.429,265.845 79.268 C 265.844 81.686,265.573 82.715,264.961 82.628 C 264.526 82.566,264.515 82.498,264.586 80.301 C 264.662 77.940,264.438 76.936,263.633 76.030 C 261.686 73.837,255.615 74.824,250.462 78.172 C 246.421 80.796,242.230 81.810,239.426 80.842 C 238.342 80.468,238.334 80.468,237.157 80.944 C 234.231 82.125,232.422 82.300,229.869 81.647 C 223.101 79.916,218.351 72.898,220.105 67.221 C 221.529 62.611,227.220 59.727,230.999 61.701 M189.571 63.769 L 185.209 65.697 185.271 66.321 C 185.331 66.923,185.479 67.009,189.434 68.754 C 194.006 70.772,193.900 70.739,193.809 70.110 C 193.755 69.735,193.097 69.376,190.000 68.030 C 187.941 67.135,186.259 66.346,186.262 66.278 C 186.264 66.210,187.989 65.406,190.094 64.492 L 193.921 62.831 195.606 63.621 C 197.570 64.541,197.538 64.535,197.538 63.995 C 197.538 63.675,197.124 63.379,195.736 62.709 L 193.933 61.840 189.571 63.769 M205.885 62.374 C 205.763 62.843,205.767 62.845,210.918 65.041 C 212.354 65.653,213.531 66.206,213.534 66.270 C 213.536 66.334,211.803 67.146,209.681 68.074 L 205.824 69.762 204.040 68.942 L 202.256 68.121 202.256 68.626 C 202.256 69.061,202.503 69.246,204.023 69.948 L 205.789 70.764 210.125 68.855 L 214.462 66.946 214.462 66.285 L 214.462 65.624 210.271 63.786 C 205.393 61.647,206.022 61.850,205.885 62.374 M160.205 72.965 C 157.658 73.892,158.124 77.217,161.019 78.766 C 161.864 79.218,163.899 76.805,163.897 75.354 C 163.895 73.727,161.813 72.380,160.205 72.965 M237.641 73.003 C 235.522 73.924,235.434 76.189,237.441 78.159 L 238.326 79.028 239.041 78.586 C 239.973 78.010,241.186 76.658,241.348 76.016 C 241.805 74.192,239.401 72.238,237.641 73.003 M346.678 88.789 C 347.313 89.303,347.313 90.389,346.678 90.904 C 345.911 91.525,53.544 91.493,52.923 90.872 C 52.333 90.282,52.392 89.356,53.053 88.835 L 53.594 88.410 199.902 88.410 C 341.784 88.410,346.225 88.422,346.678 88.789 M73.689 101.813 C 94.408 106.815,97.589 138.202,78.360 147.898 C 74.294 149.948,74.285 149.949,57.320 149.949 L 42.667 149.949 42.667 125.778 C 42.667 112.484,42.735 101.539,42.818 101.456 C 43.153 101.120,72.211 101.456,73.689 101.813 M128.513 101.907 C 142.972 105.856,146.853 124.988,134.868 133.242 C 134.250 133.668,133.744 134.059,133.744 134.111 C 133.744 134.187,138.691 148.779,139.027 149.692 C 139.095 149.879,138.792 149.949,137.912 149.949 L 136.702 149.949 134.163 142.615 C 131.189 134.028,131.691 135.075,130.710 135.415 L 129.908 135.692 132.335 142.769 C 133.670 146.662,134.764 149.869,134.766 149.897 C 134.768 149.926,134.229 149.949,133.568 149.949 L 132.367 149.949 130.059 143.231 C 127.449 135.633,127.697 136.145,126.723 136.355 L 125.987 136.513 128.199 143.231 L 130.412 149.949 129.213 149.949 L 128.014 149.949 125.812 143.179 L 123.610 136.410 122.739 136.410 L 121.868 136.410 122.166 137.385 C 122.329 137.921,123.278 140.944,124.275 144.103 L 126.087 149.846 124.969 149.908 C 123.567 149.986,123.990 150.825,121.559 143.146 L 119.460 136.513 115.514 136.457 L 111.569 136.401 111.630 135.329 L 111.692 134.256 119.487 134.143 C 128.117 134.018,128.380 133.983,131.152 132.592 C 141.378 127.460,142.637 113.327,133.451 106.772 C 129.263 103.784,129.342 103.795,112.275 103.795 L 98.051 103.795 98.051 126.872 L 98.051 149.949 96.923 149.949 L 95.795 149.949 95.795 125.778 C 95.795 112.484,95.863 101.539,95.945 101.456 C 96.375 101.027,126.833 101.448,128.513 101.907 M148.462 125.692 L 148.515 149.949 147.385 149.949 L 146.256 149.949 146.256 125.778 C 146.256 112.484,146.322 101.541,146.403 101.461 C 146.483 101.380,146.968 101.342,147.480 101.375 L 148.410 101.436 148.462 125.692 M152.770 125.692 L 152.822 149.949 151.591 149.949 L 150.359 149.949 150.359 125.778 C 150.359 112.484,150.425 101.541,150.505 101.461 C 150.585 101.381,151.116 101.342,151.684 101.375 L 152.718 101.436 152.770 125.692 M156.873 125.692 L 156.925 149.949 155.796 149.949 L 154.667 149.949 154.667 125.778 C 154.667 112.484,154.732 101.541,154.813 101.461 C 154.893 101.380,155.378 101.342,155.890 101.375 L 156.821 101.436 156.873 125.692 M161.180 125.692 L 161.232 149.949 160.001 149.949 L 158.769 149.949 158.769 125.778 C 158.769 112.484,158.835 101.541,158.915 101.461 C 158.995 101.381,159.526 101.342,160.095 101.375 L 161.128 101.436 161.180 125.692 M167.588 102.205 C 167.800 102.685,171.818 112.815,176.517 124.718 C 181.217 136.621,185.128 146.429,185.210 146.515 C 185.291 146.601,189.378 136.493,194.291 124.053 L 203.224 101.436 204.381 101.374 C 205.228 101.329,205.537 101.384,205.532 101.580 C 205.528 101.726,201.256 112.646,196.039 125.846 L 186.553 149.846 185.301 149.907 L 184.049 149.967 181.469 143.445 C 180.051 139.858,175.752 128.991,171.917 119.297 C 168.082 109.603,164.991 101.595,165.048 101.502 C 165.445 100.860,167.209 101.348,167.588 102.205 M171.965 101.897 C 172.583 103.126,186.742 139.199,186.720 139.487 C 186.685 139.935,185.617 142.198,185.497 142.078 C 185.259 141.840,169.480 101.634,169.568 101.491 C 169.855 101.026,171.683 101.336,171.965 101.897 M176.347 101.582 C 176.438 101.719,179.341 108.988,182.798 117.736 L 189.083 133.641 188.583 134.974 C 188.308 135.707,188.018 136.371,187.939 136.449 C 187.773 136.613,173.948 101.720,174.086 101.487 C 174.238 101.232,176.168 101.313,176.347 101.582 M180.869 101.590 C 181.177 101.981,191.181 127.438,191.180 127.828 C 191.179 128.183,190.382 130.455,190.168 130.710 C 190.023 130.884,178.481 101.712,178.605 101.487 C 178.749 101.229,180.654 101.316,180.869 101.590 M210.049 101.590 C 210.047 101.731,205.775 112.646,200.554 125.846 L 191.061 149.846 189.890 149.908 C 189.245 149.942,188.718 149.882,188.718 149.775 C 188.718 149.669,192.927 138.933,198.070 125.919 C 203.214 112.904,207.504 102.049,207.604 101.795 C 207.813 101.261,210.054 101.073,210.049 101.590 M214.567 101.590 C 214.569 101.731,210.300 112.666,205.080 125.891 L 195.590 149.936 194.386 149.943 C 193.338 149.948,193.196 149.903,193.282 149.590 C 193.362 149.304,209.636 108.100,211.796 102.718 L 212.351 101.333 213.458 101.333 C 214.204 101.333,214.565 101.417,214.567 101.590 M219.131 101.547 C 219.157 101.608,214.887 112.522,209.641 125.801 L 200.103 149.944 198.899 149.946 C 197.850 149.948,197.709 149.903,197.799 149.590 C 197.883 149.301,215.236 105.359,216.516 102.196 L 216.873 101.314 217.977 101.375 C 218.585 101.409,219.104 101.486,219.131 101.547 M225.180 125.692 L 225.232 149.949 224.103 149.949 L 222.974 149.949 222.974 125.778 C 222.974 112.484,223.040 101.541,223.121 101.461 C 223.201 101.380,223.686 101.342,224.197 101.375 L 225.128 101.436 225.180 125.692 M229.488 125.692 L 229.540 149.949 228.309 149.949 L 227.077 149.949 227.077 125.778 C 227.077 112.484,227.143 101.541,227.223 101.461 C 227.303 101.381,227.834 101.342,228.402 101.375 L 229.436 101.436 229.488 125.692 M233.591 125.692 L 233.643 149.949 232.514 149.949 L 231.385 149.949 231.385 125.778 C 231.385 112.484,231.450 101.541,231.531 101.461 C 231.611 101.380,232.096 101.342,232.608 101.375 L 233.538 101.436 233.591 125.692 M260.205 102.564 L 260.205 103.692 249.077 103.745 L 237.949 103.798 237.949 104.720 L 237.949 105.641 249.128 105.641 L 260.308 105.641 260.308 106.769 L 260.308 107.897 249.128 107.897 L 237.949 107.897 237.949 108.923 L 237.949 109.949 249.139 109.949 L 260.329 109.949 260.267 111.026 L 260.205 112.103 249.077 112.156 L 237.949 112.209 237.949 116.309 L 237.949 120.410 243.692 120.410 L 249.436 120.410 249.436 121.538 L 249.436 122.667 243.692 122.667 L 237.949 122.667 237.949 123.586 L 237.949 124.506 243.641 124.561 L 249.333 124.615 249.333 125.744 L 249.333 126.872 243.641 126.926 L 237.949 126.981 237.949 127.901 L 237.949 128.821 243.692 128.821 L 249.436 128.821 249.436 129.949 L 249.436 131.077 243.692 131.077 L 237.949 131.077 237.949 135.179 L 237.949 139.282 249.128 139.282 L 260.308 139.282 260.308 140.410 L 260.308 141.538 249.128 141.538 L 237.949 141.538 237.949 142.564 L 237.949 143.590 249.128 143.590 L 260.308 143.590 260.308 144.718 L 260.308 145.846 249.128 145.846 L 237.949 145.846 237.949 146.769 L 237.949 147.692 249.128 147.692 L 260.308 147.692 260.308 148.821 L 260.308 149.949 247.897 149.949 L 235.487 149.949 235.487 125.778 C 235.487 112.484,235.549 101.545,235.626 101.468 C 235.702 101.392,241.263 101.354,247.985 101.383 L 260.205 101.436 260.205 102.564 M277.056 119.164 C 282.195 128.914,286.448 137.019,286.508 137.174 C 286.594 137.399,286.356 137.444,285.334 137.395 L 284.052 137.333 275.821 121.712 L 267.590 106.090 267.538 128.019 L 267.485 149.949 266.358 149.949 L 265.231 149.949 265.231 125.778 C 265.231 112.484,265.296 101.541,265.376 101.461 C 265.457 101.381,266.015 101.343,266.618 101.376 L 267.714 101.436 277.056 119.164 M281.897 119.274 C 287.059 129.085,291.282 137.189,291.282 137.284 C 291.282 137.378,290.723 137.428,290.040 137.394 L 288.798 137.333 279.399 119.487 C 274.230 109.672,270.043 101.567,270.095 101.477 C 270.147 101.388,270.712 101.341,271.351 101.375 L 272.512 101.436 281.897 119.274 M277.409 101.795 C 277.568 102.049,281.504 109.503,286.156 118.359 C 290.808 127.215,294.681 134.535,294.763 134.626 C 294.846 134.716,298.727 127.516,303.388 118.626 C 313.405 99.522,312.332 101.297,313.816 101.375 L 314.974 101.436 315.026 125.692 L 315.079 149.949 313.848 149.949 L 312.617 149.949 312.565 128.087 L 312.513 106.225 304.308 121.823 L 296.103 137.422 294.843 137.429 L 293.582 137.436 284.227 119.623 C 279.082 109.825,274.872 101.702,274.872 101.571 C 274.872 101.083,277.084 101.278,277.409 101.795 M305.284 101.688 C 305.225 101.985,292.334 126.382,292.103 126.632 C 292.017 126.726,291.662 126.278,291.315 125.637 L 290.684 124.471 296.342 113.774 C 299.453 107.891,302.225 102.680,302.501 102.195 L 303.003 101.314 304.168 101.375 C 304.954 101.416,305.317 101.518,305.284 101.688 M310.153 101.487 C 310.152 101.776,294.608 131.179,294.456 131.179 C 294.373 131.179,294.043 130.714,293.721 130.145 L 293.137 129.111 300.437 115.222 L 307.737 101.333 308.945 101.333 C 309.610 101.333,310.154 101.403,310.153 101.487 M322.616 125.692 L 322.668 149.949 321.539 149.949 L 320.410 149.949 320.410 125.778 C 320.410 112.484,320.476 101.541,320.556 101.461 C 320.637 101.380,321.121 101.342,321.633 101.375 L 322.564 101.436 322.616 125.692 M326.924 125.692 L 326.976 149.949 325.744 149.949 L 324.513 149.949 324.513 125.778 C 324.513 112.484,324.579 101.541,324.659 101.461 C 324.739 101.381,325.270 101.342,325.838 101.375 L 326.872 101.436 326.924 125.692 M331.026 125.692 L 331.079 149.949 329.950 149.949 L 328.821 149.949 328.821 125.778 C 328.821 112.484,328.886 101.541,328.967 101.461 C 329.047 101.380,329.532 101.342,330.044 101.375 L 330.974 101.436 331.026 125.692 M357.641 102.564 L 357.641 103.692 346.513 103.745 L 335.385 103.798 335.385 104.720 L 335.385 105.641 346.564 105.641 L 357.744 105.641 357.744 106.769 L 357.744 107.897 346.564 107.897 L 335.385 107.897 335.385 108.923 L 335.385 109.949 346.575 109.949 L 357.765 109.949 357.703 111.026 L 357.641 112.103 346.513 112.156 L 335.385 112.209 335.385 116.309 L 335.385 120.410 341.128 120.410 L 346.872 120.410 346.872 121.538 L 346.872 122.667 341.128 122.667 L 335.385 122.667 335.385 123.586 L 335.385 124.506 341.077 124.561 L 346.769 124.615 346.769 125.744 L 346.769 126.872 341.077 126.926 L 335.385 126.981 335.385 127.901 L 335.385 128.821 341.128 128.821 L 346.872 128.821 346.872 129.949 L 346.872 131.077 341.128 131.077 L 335.385 131.077 335.385 135.179 L 335.385 139.282 346.564 139.282 L 357.744 139.282 357.744 140.410 L 357.744 141.538 346.564 141.538 L 335.385 141.538 335.385 142.564 L 335.385 143.590 346.564 143.590 L 357.744 143.590 357.744 144.718 L 357.744 145.846 346.564 145.846 L 335.385 145.846 335.385 146.769 L 335.385 147.692 346.564 147.692 L 357.744 147.692 357.744 148.821 L 357.744 149.949 345.333 149.949 L 332.923 149.949 332.923 125.778 C 332.923 112.484,332.985 101.545,333.061 101.468 C 333.138 101.392,338.699 101.354,345.420 101.383 L 357.641 101.436 357.641 102.564 M44.923 125.752 L 44.923 147.708 58.923 147.647 L 72.923 147.586 74.359 147.103 C 92.351 141.048,94.029 113.631,76.908 105.446 C 73.400 103.769,73.693 103.795,58.429 103.795 L 44.923 103.795 44.923 125.752 M74.154 106.303 C 88.836 111.297,91.491 133.954,78.451 142.968 C 74.419 145.756,73.804 145.846,58.880 145.846 L 46.769 145.846 46.769 125.735 L 46.769 105.624 59.641 105.685 L 72.513 105.745 74.154 106.303 M128.511 106.323 C 139.597 110.240,141.031 124.607,130.929 130.554 C 128.296 132.105,127.580 132.205,119.179 132.205 L 111.692 132.205 111.631 131.146 L 111.570 130.087 119.016 130.004 C 127.414 129.911,127.921 129.833,130.374 128.244 C 138.121 123.227,136.766 111.970,128.000 108.524 L 126.667 108.000 114.513 107.940 L 102.359 107.879 102.359 128.914 L 102.359 149.949 101.128 149.949 L 99.897 149.949 99.897 127.788 L 99.897 105.627 113.385 105.685 L 126.872 105.744 128.511 106.323 M49.231 125.733 L 49.231 143.590 59.906 143.590 C 68.793 143.590,70.842 143.536,72.135 143.269 C 84.839 140.645,88.962 121.279,78.836 111.793 C 74.889 108.095,74.560 108.025,60.667 107.943 L 49.231 107.875 49.231 125.733 M72.629 110.276 C 84.094 113.643,86.187 132.921,75.822 139.674 C 72.991 141.519,73.698 141.428,61.692 141.496 L 51.077 141.556 51.077 125.752 L 51.077 109.949 61.296 109.949 C 70.049 109.949,71.675 109.996,72.629 110.276 M128.254 110.727 C 135.274 114.184,135.277 123.916,128.258 127.241 L 126.872 127.897 119.220 127.960 L 111.568 128.023 111.630 126.935 L 111.692 125.846 119.077 125.744 C 126.225 125.644,126.491 125.626,127.391 125.178 C 132.577 122.595,132.513 115.383,127.282 112.812 L 126.256 112.308 116.359 112.251 L 106.462 112.194 106.462 131.071 L 106.462 149.949 105.333 149.949 L 104.205 149.949 104.205 129.942 L 104.205 109.935 115.543 109.993 L 126.881 110.051 128.254 110.727 M53.333 125.744 L 53.333 139.298 62.615 139.239 L 71.897 139.179 73.302 138.514 C 82.436 134.188,82.445 117.303,73.316 112.979 L 71.897 112.308 62.615 112.249 L 53.333 112.189 53.333 125.744 M310.769 131.077 L 310.769 149.949 309.641 149.949 L 308.513 149.949 308.513 133.055 L 308.513 116.162 309.554 114.183 C 310.127 113.095,310.635 112.205,310.682 112.205 C 310.730 112.205,310.769 120.697,310.769 131.077 M270.750 114.684 L 271.795 116.650 271.795 133.299 L 271.795 149.949 270.564 149.949 L 269.333 149.949 269.333 131.138 C 269.333 119.876,269.408 112.406,269.519 112.523 C 269.622 112.630,270.176 113.603,270.750 114.684 M72.663 114.829 C 80.152 118.517,80.029 133.235,72.480 136.772 L 71.282 137.333 63.282 137.333 L 55.282 137.333 55.229 125.683 L 55.176 114.033 63.234 114.094 L 71.292 114.154 72.663 114.829 M125.988 114.293 C 129.438 115.326,130.476 120.400,127.731 122.810 C 126.666 123.746,126.206 123.795,118.564 123.795 L 111.692 123.795 111.630 122.718 L 111.568 121.641 117.989 121.636 C 126.473 121.630,126.763 121.550,126.934 119.189 C 127.135 116.414,126.801 116.308,117.853 116.308 L 110.769 116.308 110.769 133.128 L 110.769 149.949 109.538 149.949 L 108.308 149.949 108.308 132.000 L 108.308 114.051 116.745 114.051 C 122.619 114.051,125.428 114.125,125.988 114.293 M57.641 125.754 L 57.641 135.201 64.256 135.139 C 70.626 135.079,70.903 135.060,71.719 134.624 C 76.720 131.949,77.397 121.795,72.847 117.704 C 71.346 116.354,71.048 116.308,63.925 116.308 L 57.641 116.308 57.641 125.754 M306.462 135.077 L 306.462 149.949 305.333 149.949 L 304.205 149.949 304.205 137.123 L 304.205 124.297 305.282 122.255 C 305.874 121.132,306.382 120.212,306.410 120.209 C 306.438 120.207,306.462 126.897,306.462 135.077 M275.068 122.879 L 275.897 124.473 275.897 137.211 L 275.897 149.949 274.769 149.949 L 273.641 149.949 273.648 135.231 C 273.655 118.840,273.530 119.923,275.068 122.879 M302.359 139.077 L 302.359 149.949 301.231 149.949 L 300.103 149.949 300.105 141.077 L 300.107 132.205 301.141 130.205 C 301.709 129.105,302.216 128.205,302.267 128.205 C 302.317 128.205,302.359 133.097,302.359 139.077 M279.134 130.638 L 280.205 132.661 280.205 141.305 L 280.205 149.949 278.974 149.949 L 277.744 149.949 277.744 139.282 C 277.744 133.415,277.815 128.615,277.903 128.615 C 277.991 128.615,278.545 129.526,279.134 130.638 M346.213 161.157 C 347.178 161.415,347.440 162.684,346.706 163.538 C 346.187 164.142,53.527 164.091,52.923 163.487 C 52.333 162.897,52.392 161.971,53.053 161.451 L 53.594 161.026 199.669 161.028 C 280.010 161.030,345.955 161.088,346.213 161.157 M136.362 183.451 L 200.000 198.697 263.627 183.454 C 298.621 175.070,327.287 168.244,327.328 168.285 C 327.369 168.326,326.268 168.777,324.881 169.287 C 323.494 169.798,294.871 180.424,261.276 192.902 C 227.680 205.380,200.105 215.590,200.000 215.590 C 199.585 215.590,72.328 168.268,72.619 168.222 C 72.677 168.213,101.362 175.066,136.362 183.451 " stroke="none" fill="#ffffff" fill-rule="evenodd"></path><path id="path4" d="M195.385 11.990 C 193.354 12.809,185.554 15.902,178.051 18.865 C 170.549 21.827,156.933 27.204,147.795 30.813 C 138.656 34.422,125.964 39.434,119.590 41.951 C 113.215 44.468,101.815 48.970,94.256 51.956 C 80.338 57.454,56.036 67.051,35.309 75.234 C 28.445 77.943,23.759 79.904,23.463 80.188 L 22.974 80.658 22.974 124.983 L 22.974 169.307 23.417 169.779 C 23.698 170.077,26.613 171.339,31.366 173.219 C 35.494 174.852,45.518 178.812,53.641 182.019 C 81.318 192.947,90.762 196.677,107.385 203.242 C 135.380 214.300,148.118 219.330,160.308 224.144 C 166.738 226.683,178.168 231.197,185.706 234.175 C 193.245 237.153,199.682 239.590,200.012 239.590 C 200.342 239.590,203.867 238.307,207.845 236.739 C 211.822 235.172,222.369 231.008,231.282 227.488 C 240.195 223.967,252.933 218.936,259.590 216.307 C 266.246 213.679,277.208 209.350,283.949 206.687 C 335.254 186.422,351.525 179.998,364.103 175.039 C 377.156 169.893,376.549 170.159,376.932 169.418 C 377.461 168.396,377.372 81.362,376.841 80.492 C 376.498 79.929,375.824 79.608,370.945 77.682 C 356.997 72.176,335.522 63.696,320.821 57.889 C 295.489 47.883,281.177 42.231,267.949 37.007 C 246.951 28.717,235.155 24.058,217.654 17.143 C 198.036 9.392,200.448 9.950,195.385 11.990 M286.677 48.872 L 373.026 82.976 373.026 125.007 L 373.026 167.038 286.667 201.161 C 239.169 219.928,200.123 235.253,199.897 235.217 C 199.672 235.181,160.696 219.835,113.285 201.114 L 27.083 167.077 27.080 125.017 L 27.077 82.956 113.282 48.885 C 160.695 30.145,199.677 14.803,199.908 14.791 C 200.140 14.779,239.186 30.116,286.677 48.872 M196.005 26.908 C 195.874 27.276,197.409 42.606,197.596 42.792 C 198.028 43.225,197.588 33.042,196.947 27.812 C 196.822 26.786,196.245 26.233,196.005 26.908 M204.007 28.564 C 203.879 28.959,203.282 34.580,203.282 35.387 C 203.282 36.210,203.825 36.406,203.987 35.641 C 204.264 34.331,204.921 28.675,204.816 28.505 C 204.641 28.222,204.105 28.261,204.007 28.564 M216.049 38.938 C 212.413 45.152,211.396 47.185,212.492 46.046 C 213.207 45.302,220.735 32.960,220.673 32.634 C 220.472 31.592,219.858 32.429,216.049 38.938 M188.445 32.559 C 188.254 32.869,190.800 40.000,191.103 40.000 C 191.531 40.000,191.444 39.563,190.291 35.900 C 189.282 32.695,188.848 31.908,188.445 32.559 M210.183 33.385 C 208.206 39.570,208.066 40.176,208.665 39.946 C 209.000 39.818,211.374 32.931,211.187 32.628 C 210.891 32.149,210.479 32.460,210.183 33.385 M180.821 33.025 C 180.635 33.327,184.297 39.674,184.706 39.759 C 185.297 39.881,185.013 39.114,183.315 36.002 C 181.740 33.117,181.179 32.446,180.821 33.025 M173.423 36.533 C 173.232 36.843,183.219 48.372,183.963 48.699 C 184.800 49.068,183.609 47.446,179.179 42.183 C 174.581 36.720,173.788 35.942,173.423 36.533 M203.000 37.564 C 202.709 39.020,202.957 40.691,203.367 40.029 C 203.685 39.513,203.746 36.923,203.440 36.923 C 203.255 36.923,203.076 37.184,203.000 37.564 M223.204 40.861 C 220.987 43.303,220.319 44.308,220.915 44.308 C 221.316 44.308,226.154 39.142,226.154 38.715 C 226.154 37.819,225.601 38.222,223.204 40.861 M185.140 40.596 C 185.008 40.810,186.139 42.980,186.499 43.203 C 187.051 43.544,186.999 42.854,186.389 41.753 C 185.710 40.527,185.375 40.216,185.140 40.596 M191.291 40.806 C 191.137 41.055,192.126 44.234,192.412 44.411 C 192.824 44.666,192.813 44.003,192.383 42.616 C 191.885 41.010,191.529 40.421,191.291 40.806 M207.414 42.308 C 206.619 44.990,207.105 45.312,207.974 42.678 C 208.484 41.134,208.510 40.821,208.132 40.821 C 207.965 40.821,207.680 41.411,207.414 42.308 M202.601 41.590 C 202.552 41.674,202.450 42.482,202.375 43.385 C 202.300 44.287,202.189 45.279,202.129 45.590 C 202.049 45.996,202.102 46.154,202.316 46.154 C 202.600 46.154,203.077 43.544,203.077 41.986 C 203.077 41.471,202.803 41.243,202.601 41.590 M197.679 44.051 C 197.516 44.335,197.844 46.052,198.051 46.000 C 198.164 45.972,198.249 45.810,198.239 45.641 C 198.230 45.472,198.207 45.010,198.188 44.615 C 198.157 43.959,197.898 43.672,197.679 44.051 M187.292 44.667 C 187.316 45.035,189.467 48.489,189.727 48.576 C 189.935 48.645,189.974 48.565,189.866 48.284 C 189.147 46.398,187.230 43.704,187.292 44.667 M218.773 45.761 C 218.052 46.532,217.858 46.863,218.028 47.034 C 218.285 47.290,220.308 45.469,220.308 44.982 C 220.308 44.448,219.724 44.744,218.773 45.761 M192.769 45.248 C 192.592 45.426,193.122 46.836,193.401 46.929 C 193.721 47.035,193.704 46.700,193.344 45.840 C 193.038 45.108,192.975 45.042,192.769 45.248 M206.481 45.302 C 206.297 45.600,206.094 47.179,206.241 47.179 C 206.417 47.179,206.974 45.860,206.974 45.442 C 206.974 45.106,206.658 45.015,206.481 45.302 M170.670 45.692 C 170.672 46.018,176.523 50.359,176.960 50.359 C 177.703 50.359,176.847 49.466,174.254 47.538 C 171.296 45.339,170.664 45.013,170.670 45.692 M225.366 47.593 C 223.712 48.836,222.359 49.938,222.359 50.043 C 222.359 50.579,222.945 50.303,225.282 48.665 C 228.845 46.167,229.222 45.857,229.049 45.576 C 228.766 45.119,228.367 45.337,225.366 47.593 M210.876 47.787 C 210.433 48.654,210.359 49.026,210.629 49.026 C 210.825 49.026,211.692 47.538,211.692 47.203 C 211.692 46.712,211.270 47.014,210.876 47.787 M215.231 49.651 C 213.843 51.188,213.515 51.692,213.902 51.692 C 214.165 51.692,217.231 48.523,217.231 48.252 C 217.231 47.678,216.635 48.094,215.231 49.651 M184.821 49.439 C 184.821 49.811,185.870 51.077,186.178 51.077 C 186.581 51.077,186.535 50.916,185.923 50.183 C 185.292 49.428,184.821 49.109,184.821 49.439 M199.231 49.993 C 199.541 50.040,200.049 50.040,200.359 49.993 C 200.669 49.946,200.415 49.908,199.795 49.908 C 199.174 49.908,198.921 49.946,199.231 49.993 M164.787 50.373 C 164.608 50.839,164.708 50.900,168.292 52.504 C 171.321 53.858,172.103 54.074,172.103 53.555 C 172.103 53.363,165.475 50.051,165.092 50.051 C 164.992 50.051,164.855 50.196,164.787 50.373 M177.853 50.821 C 177.859 51.176,180.212 52.923,180.685 52.923 C 181.206 52.923,180.859 52.504,179.513 51.507 C 177.951 50.348,177.843 50.304,177.853 50.821 M220.177 51.493 C 218.911 52.416,218.372 53.101,219.007 52.981 C 219.380 52.910,221.949 51.065,221.949 50.868 C 221.949 50.385,221.461 50.557,220.177 51.493 M233.744 51.772 C 232.390 52.374,229.136 53.812,226.513 54.968 C 222.150 56.891,221.168 57.436,222.070 57.436 C 222.423 57.436,236.510 51.751,236.776 51.501 C 236.991 51.299,236.734 50.665,236.440 50.672 C 236.311 50.675,235.097 51.170,233.744 51.772 M212.103 53.192 C 212.103 53.228,212.403 53.528,212.769 53.859 L 213.436 54.462 212.833 53.795 C 212.272 53.173,212.103 53.034,212.103 53.192 M181.538 53.524 C 181.538 53.630,181.807 53.907,182.134 54.140 C 183.206 54.903,183.625 54.561,182.572 53.782 C 181.929 53.306,181.538 53.209,181.538 53.524 M216.978 53.943 C 216.609 54.278,216.432 54.555,216.584 54.558 C 217.016 54.568,218.051 53.889,218.051 53.597 C 218.051 53.175,217.696 53.289,216.978 53.943 M172.842 53.893 C 172.507 54.228,172.827 54.558,173.962 55.050 C 175.372 55.661,175.590 55.698,175.590 55.326 C 175.590 55.031,173.036 53.699,172.842 53.893 M187.987 54.821 L 187.385 55.487 188.051 54.885 C 188.418 54.553,188.718 54.253,188.718 54.218 C 188.718 54.060,188.549 54.199,187.987 54.821 M188.192 55.436 L 187.590 56.103 188.256 55.500 C 188.623 55.169,188.923 54.869,188.923 54.833 C 188.923 54.675,188.754 54.814,188.192 55.436 M210.667 54.833 C 210.667 54.869,210.967 55.169,211.333 55.500 L 212.000 56.103 211.398 55.436 C 210.836 54.814,210.667 54.675,210.667 54.833 M176.821 56.073 C 176.821 56.328,180.379 58.051,180.904 58.051 C 181.498 58.051,180.958 57.649,179.177 56.764 C 177.075 55.720,176.821 55.646,176.821 56.073 M219.538 57.999 C 218.848 58.343,218.662 58.667,219.154 58.667 C 219.621 58.667,220.923 58.061,220.923 57.843 C 220.923 57.549,220.304 57.618,219.538 57.999 M169.617 61.411 C 165.555 62.863,165.395 68.353,169.371 69.871 C 171.016 70.500,171.176 69.511,169.556 68.727 C 165.549 66.787,167.873 61.621,172.421 62.361 C 181.670 63.866,180.496 76.543,170.769 80.193 C 168.021 81.225,161.349 80.458,162.993 79.299 C 166.868 76.569,164.548 70.570,160.083 71.773 C 156.638 72.700,156.363 76.720,159.574 79.213 L 160.277 79.759 159.290 79.907 C 156.587 80.312,153.806 79.487,149.962 77.138 C 140.718 71.490,133.459 72.795,134.015 80.005 C 134.164 81.935,134.437 82.722,134.924 82.625 C 135.191 82.572,135.273 82.373,135.247 81.841 C 135.067 78.219,135.098 77.794,135.615 76.788 C 137.256 73.593,142.814 74.104,149.347 78.050 C 154.051 80.892,157.369 81.698,160.421 80.738 C 161.513 80.394,161.574 80.396,162.526 80.804 C 173.333 85.437,185.334 72.051,177.654 63.931 C 175.531 61.686,171.972 60.570,169.617 61.411 M226.261 61.445 C 220.295 63.113,218.049 69.541,221.456 75.199 C 224.988 81.064,231.433 83.339,237.329 80.803 C 238.278 80.394,238.351 80.391,239.311 80.724 C 242.241 81.737,246.046 80.805,250.690 77.935 C 256.791 74.163,262.500 73.650,264.195 76.721 C 264.706 77.645,264.768 78.520,264.558 81.841 C 264.503 82.715,265.061 82.947,265.467 82.218 C 265.942 81.364,265.828 77.392,265.299 76.410 C 263.194 72.497,257.171 72.726,250.086 76.991 C 246.222 79.316,244.396 80.002,242.081 79.997 C 239.652 79.992,239.378 79.788,240.618 78.911 C 243.866 76.613,242.616 71.687,238.787 71.694 C 234.821 71.702,233.431 75.812,236.381 78.810 C 237.322 79.767,237.356 79.679,235.846 80.198 C 226.437 83.437,216.549 71.531,222.992 64.719 C 226.493 61.017,232.205 61.652,232.205 65.744 C 232.205 67.125,231.613 68.031,230.253 68.732 C 229.060 69.346,228.805 70.081,229.810 70.011 C 231.665 69.880,233.337 67.850,233.324 65.744 C 233.302 62.327,230.092 60.373,226.261 61.445 M161.887 72.821 C 164.433 72.821,164.311 77.637,161.736 78.810 C 160.734 79.267,158.359 76.950,158.359 75.515 C 158.359 74.057,160.042 72.412,161.196 72.742 C 161.347 72.785,161.657 72.821,161.887 72.821 M240.260 73.277 C 242.010 74.501,241.806 76.545,239.772 78.153 C 238.327 79.295,237.727 79.113,236.485 77.154 C 234.757 74.429,237.653 71.455,240.260 73.277 M187.692 77.398 C 187.692 77.433,187.992 77.733,188.359 78.064 L 189.026 78.667 188.423 78.000 C 187.862 77.379,187.692 77.239,187.692 77.398 M211.167 78.000 L 210.564 78.667 211.231 78.064 C 211.597 77.733,211.897 77.433,211.897 77.398 C 211.897 77.239,211.728 77.379,211.167 78.000 M199.541 83.427 C 199.796 83.476,200.165 83.474,200.361 83.423 C 200.557 83.372,200.349 83.332,199.897 83.334 C 199.446 83.336,199.286 83.378,199.541 83.427 M368.100 125.128 C 368.100 146.169,368.124 154.777,368.154 144.256 C 368.183 133.736,368.183 116.521,368.154 106.000 C 368.124 95.479,368.100 104.087,368.100 125.128 M53.210 88.772 C 52.358 89.342,52.498 90.720,53.446 91.081 C 53.791 91.212,104.919 91.282,199.986 91.282 L 345.996 91.282 346.536 90.857 C 347.179 90.351,347.257 89.457,346.702 88.955 C 346.303 88.594,53.750 88.412,53.210 88.772 M148.407 125.744 C 148.407 139.113,148.431 144.582,148.462 137.897 C 148.492 131.213,148.492 120.274,148.462 113.590 C 148.431 106.905,148.407 112.374,148.407 125.744 M156.817 125.744 C 156.817 139.113,156.842 144.582,156.872 137.897 C 156.902 131.213,156.902 120.274,156.872 113.590 C 156.842 106.905,156.817 112.374,156.817 125.744 M225.125 125.744 C 225.125 139.113,225.149 144.582,225.179 137.897 C 225.209 131.213,225.209 120.274,225.179 113.590 C 225.149 106.905,225.125 112.374,225.125 125.744 M233.535 125.744 C 233.535 139.113,233.560 144.582,233.590 137.897 C 233.620 131.213,233.620 120.274,233.590 113.590 C 233.560 106.905,233.535 112.374,233.535 125.744 M322.561 125.744 C 322.561 139.113,322.585 144.582,322.615 137.897 C 322.645 131.213,322.645 120.274,322.615 113.590 C 322.585 106.905,322.561 112.374,322.561 125.744 M330.971 125.744 C 330.971 139.113,330.996 144.582,331.026 137.897 C 331.056 131.213,331.056 120.274,331.026 113.590 C 330.996 106.905,330.971 112.374,330.971 125.744 M44.817 125.641 C 44.817 137.826,44.842 142.780,44.872 136.651 C 44.902 130.522,44.902 120.553,44.872 114.497 C 44.842 108.442,44.817 113.456,44.817 125.641 M97.945 126.769 C 97.945 139.574,97.970 144.813,98.000 138.410 C 98.030 132.008,98.030 121.531,98.000 115.128 C 97.970 108.726,97.945 113.964,97.945 126.769 M52.872 105.795 C 56.172 105.826,61.572 105.826,64.872 105.795 C 68.172 105.763,65.472 105.737,58.872 105.737 C 52.272 105.737,49.572 105.763,52.872 105.795 M106.410 105.795 C 109.936 105.826,115.705 105.826,119.231 105.795 C 122.756 105.763,119.872 105.738,112.821 105.738 C 105.769 105.738,102.885 105.763,106.410 105.795 M243.436 105.795 C 246.510 105.827,251.541 105.827,254.615 105.795 C 257.690 105.763,255.174 105.737,249.026 105.737 C 242.877 105.737,240.362 105.763,243.436 105.795 M267.282 127.795 C 267.282 140.017,267.327 149.972,267.383 149.916 C 267.518 149.781,267.524 105.814,267.388 105.679 C 267.330 105.620,267.282 115.573,267.282 127.795 M340.872 105.795 C 343.946 105.827,348.977 105.827,352.051 105.795 C 355.126 105.763,352.610 105.737,346.462 105.737 C 340.313 105.737,337.797 105.763,340.872 105.795 M135.179 108.205 C 135.562 108.600,135.922 108.923,135.978 108.923 C 136.034 108.923,135.767 108.600,135.385 108.205 C 135.002 107.810,134.643 107.487,134.586 107.487 C 134.530 107.487,134.797 107.810,135.179 108.205 M80.718 110.564 C 81.159 111.015,81.565 111.385,81.622 111.385 C 81.678 111.385,81.364 111.015,80.923 110.564 C 80.482 110.113,80.076 109.744,80.019 109.744 C 79.963 109.744,80.277 110.113,80.718 110.564 M53.225 125.744 C 53.225 133.246,53.251 136.315,53.282 132.564 C 53.313 128.813,53.313 122.674,53.282 118.923 C 53.251 115.172,53.225 118.241,53.225 125.744 M106.355 131.077 C 106.355 141.513,106.380 145.782,106.410 140.564 C 106.441 135.346,106.441 126.808,106.410 121.590 C 106.380 116.372,106.355 120.641,106.355 131.077 M310.662 131.179 C 310.662 141.559,310.687 145.835,310.718 140.682 C 310.748 135.529,310.748 127.037,310.718 121.810 C 310.687 116.584,310.662 120.800,310.662 131.179 M59.142 114.205 C 61.264 114.238,64.680 114.238,66.731 114.205 C 68.783 114.171,67.046 114.144,62.872 114.144 C 58.697 114.144,57.019 114.172,59.142 114.205 M112.564 114.205 C 114.849 114.238,118.587 114.238,120.872 114.205 C 123.156 114.172,121.287 114.145,116.718 114.145 C 112.149 114.145,110.279 114.172,112.564 114.205 M133.395 118.769 C 133.395 119.390,133.433 119.644,133.480 119.333 C 133.527 119.023,133.527 118.515,133.480 118.205 C 133.433 117.895,133.395 118.149,133.395 118.769 M141.791 119.590 C 141.791 119.985,141.833 120.146,141.885 119.949 C 141.937 119.751,141.937 119.428,141.885 119.231 C 141.833 119.033,141.791 119.195,141.791 119.590 M240.564 122.615 C 242.172 122.650,244.803 122.650,246.410 122.615 C 248.018 122.580,246.703 122.552,243.487 122.552 C 240.272 122.552,238.956 122.580,240.564 122.615 M338.000 122.615 C 339.608 122.650,342.238 122.650,343.846 122.615 C 345.454 122.580,344.138 122.552,340.923 122.552 C 337.708 122.552,336.392 122.580,338.000 122.615 M275.789 137.128 C 275.789 144.236,275.815 147.114,275.846 143.524 C 275.878 139.933,275.877 134.118,275.846 130.601 C 275.815 127.083,275.789 130.021,275.789 137.128 M91.143 125.744 C 91.143 126.477,91.180 126.777,91.225 126.410 C 91.271 126.044,91.271 125.444,91.225 125.077 C 91.180 124.710,91.143 125.010,91.143 125.744 M115.141 125.897 C 117.038 125.931,120.084 125.931,121.910 125.897 C 123.737 125.863,122.185 125.835,118.462 125.835 C 114.738 125.835,113.244 125.863,115.141 125.897 M302.115 128.564 C 302.080 128.649,302.099 133.518,302.157 139.385 L 302.262 150.051 302.310 139.231 C 302.354 129.464,302.328 128.046,302.115 128.564 M135.168 129.795 L 134.462 130.564 135.231 129.857 C 135.947 129.199,136.094 129.026,135.938 129.026 C 135.903 129.026,135.557 129.372,135.168 129.795 M240.782 131.025 C 242.396 131.060,244.981 131.060,246.525 131.025 C 248.070 130.990,246.749 130.962,243.590 130.962 C 240.431 130.962,239.167 130.991,240.782 131.025 M338.218 131.025 C 339.832 131.060,342.417 131.060,343.961 131.025 C 345.506 130.990,344.185 130.962,341.026 130.962 C 337.867 130.962,336.603 130.991,338.218 131.025 M115.115 134.307 C 116.998 134.341,120.136 134.341,122.089 134.307 C 124.043 134.274,122.503 134.246,118.667 134.246 C 114.831 134.246,113.233 134.273,115.115 134.307 M290.051 137.231 L 288.923 137.369 290.103 137.402 C 290.774 137.422,291.282 137.348,291.282 137.231 C 291.282 137.118,291.259 137.041,291.231 137.059 C 291.203 137.077,290.672 137.155,290.051 137.231 M294.872 137.231 L 293.641 137.367 294.808 137.401 C 295.450 137.420,296.033 137.344,296.103 137.231 C 296.172 137.118,296.201 137.041,296.166 137.060 C 296.131 137.079,295.549 137.156,294.872 137.231 M59.039 137.384 C 61.105 137.418,64.428 137.418,66.424 137.384 C 68.419 137.351,66.728 137.323,62.667 137.323 C 58.605 137.323,56.973 137.351,59.039 137.384 M284.670 137.379 C 285.039 137.425,285.593 137.424,285.901 137.377 C 286.209 137.331,285.908 137.293,285.231 137.294 C 284.554 137.295,284.302 137.334,284.670 137.379 M80.705 140.974 L 80.103 141.641 80.769 141.039 C 81.391 140.477,81.530 140.308,81.372 140.308 C 81.336 140.308,81.036 140.608,80.705 140.974 M52.886 145.795 C 56.194 145.826,61.548 145.826,64.784 145.795 C 68.019 145.763,65.313 145.737,58.769 145.737 C 52.226 145.737,49.578 145.763,52.886 145.795 M243.348 145.795 C 246.487 145.827,251.564 145.827,254.630 145.795 C 257.696 145.763,255.128 145.737,248.923 145.737 C 242.718 145.737,240.209 145.763,243.348 145.795 M340.784 145.795 C 343.923 145.827,348.999 145.827,352.066 145.795 C 355.132 145.763,352.564 145.737,346.359 145.737 C 340.154 145.737,337.645 145.763,340.784 145.795 M53.210 161.388 C 52.420 161.915,52.477 163.234,53.310 163.680 C 53.915 164.004,345.706 163.985,346.321 163.662 C 347.172 163.214,347.362 162.168,346.702 161.570 C 346.303 161.209,53.750 161.027,53.210 161.388 M74.462 168.910 C 74.856 169.081,103.264 179.647,137.589 192.391 L 199.999 215.561 263.062 192.142 C 297.747 179.262,326.100 168.698,326.069 168.668 C 326.039 168.637,297.661 175.404,263.007 183.705 L 200.000 198.799 137.385 183.800 C 69.012 167.422,73.442 168.470,74.462 168.910 " stroke="none" fill="#ad9574" fill-rule="evenodd"></path><path id="path5" d="" stroke="none" fill="#ffff00" fill-rule="evenodd"></path></g></svg>